<svg xmlns="http://www.w3.org/2000/svg" viewBox="0 0 1923 504.76"><defs><style>.cls-1,.cls-10,.cls-2{fill:#c0e0de;}.cls-1{opacity:0.4;}.cls-2{opacity:0.5;}.cls-3{opacity:0.6;}.cls-4{fill:#063;}.cls-5{fill:#68b684;}.cls-6{fill:#95e06c;}.cls-22,.cls-7{fill:none;}.cls-7{stroke:#f2f1c7;}.cls-13,.cls-18,.cls-22,.cls-7{stroke-miterlimit:10;}.cls-8{fill:#fcfcfc;}.cls-9{opacity:0.6;}.cls-11,.cls-13,.cls-18{fill:#fff;}.cls-12{fill:#9deadd;}.cls-13{stroke:#b2b2b2;}.cls-13,.cls-18{stroke-width:2px;}.cls-14{fill:#15caaf;}.cls-15{fill:#c3f73a;}.cls-16{fill:#ad734c;}.cls-17{fill:#683c11;}.cls-18{stroke:#fff;}.cls-19{fill:#0e8573;}.cls-20{opacity:0.3;}.cls-21{fill:#07beb8;}.cls-22{stroke:#0e8573;}</style></defs><title>Almond-city_1</title><g id="Layer_2" data-name="Layer 2"><g id="Layer_1-2" data-name="Layer 1"><path class="cls-1" d="M3,279.49S193.28,173.91,306.49,187c109,12.61,269.87,108.29,365.4,115.24,162,11.79,473.65-136,604-110.57s272.07,115.7,395.34,64.54S1923,279.49,1923,279.49v219.8H3Z"/><path class="cls-2" d="M1725.78,148.26a11.72,11.72,0,0,1-4,8.82h-65.36a17.14,17.14,0,0,1,9.6-31.34h.49a16.65,16.65,0,0,1,31.88-6.72,13.44,13.44,0,0,1,16.47,17.53A11.73,11.73,0,0,1,1725.78,148.26Z"/><path class="cls-2" d="M413.28,148.26a11.72,11.72,0,0,1-4,8.82H343.94a17.14,17.14,0,0,1,9.6-31.34H354A16.65,16.65,0,0,1,385.92,119a13.25,13.25,0,0,1,3.86-.57,13.45,13.45,0,0,1,12.6,18.1A11.73,11.73,0,0,1,413.28,148.26Z"/><path class="cls-2" d="M1899,81.74A14.42,14.42,0,0,1,1894,92.6h-80.56A21.13,21.13,0,0,1,1825.31,54h.61a20.52,20.52,0,0,1,39.3-8.28A16.27,16.27,0,0,1,1870,45a16.58,16.58,0,0,1,15.54,22.31A14.47,14.47,0,0,1,1899,81.74Z"/><path class="cls-2" d="M1534,82.85a17.93,17.93,0,0,1-6.1,13.5H1427.81a26.25,26.25,0,0,1,14.7-48h.75a25.5,25.5,0,0,1,48.82-10.29,20.21,20.21,0,0,1,5.91-.87,20.59,20.59,0,0,1,19.31,27.71A18,18,0,0,1,1534,82.85Z"/><path class="cls-2" d="M469.1,60a17.93,17.93,0,0,1-6.1,13.5H362.93a26.25,26.25,0,0,1,14.7-48h.75A25.5,25.5,0,0,1,427.2,15.2a20.21,20.21,0,0,1,5.91-.87A20.59,20.59,0,0,1,452.42,42,18,18,0,0,1,469.1,60Z"/><path class="cls-2" d="M149.79,96.57a17.93,17.93,0,0,1-6.1,13.5H43.62a26.25,26.25,0,0,1,14.7-48h.75a25.5,25.5,0,0,1,48.82-10.29,20.21,20.21,0,0,1,5.91-.87,20.59,20.59,0,0,1,19.31,27.71A18,18,0,0,1,149.79,96.57Z"/><g class="cls-3"><polygon class="cls-4" points="576.26 404.75 576.31 404.75 576.26 404.78 576.26 404.75"/><polygon class="cls-4" points="644.23 404.75 644.23 404.78 644.19 404.75 644.23 404.75"/><path class="cls-5" d="M552.45,380.41h96.27a2,2,0,0,1,2,2v22.37a0,0,0,0,1,0,0H550.45a0,0,0,0,1,0,0V382.41A2,2,0,0,1,552.45,380.41Z"/><polygon class="cls-6" points="650.72 404.78 650.72 499.2 550.45 499.2 550.45 404.78 576.26 404.78 576.31 404.75 610.25 380.8 644.19 404.75 644.23 404.78 650.72 404.78"/><polyline class="cls-7" points="550.45 404.78 576.26 404.78 576.31 404.75 610.25 380.8 644.19 404.75 644.23 404.78 650.72 404.78"/><rect class="cls-8" x="559.96" y="386.62" width="12.33" height="12.33"/><rect class="cls-8" x="587.09" y="470.13" width="12.33" height="12.33"/><rect class="cls-8" x="619.49" y="470.13" width="12.33" height="12.33"/><rect class="cls-8" x="559.96" y="418.02" width="12.33" height="12.33"/><rect class="cls-8" x="587.09" y="418.02" width="12.33" height="12.33"/><rect class="cls-8" x="619.49" y="418.02" width="12.33" height="12.33"/><rect class="cls-8" x="559.96" y="443.33" width="74.39" height="12.33"/></g><g class="cls-9"><polygon class="cls-10" points="1703.29 498.74 1636.02 498.74 1636.02 397.45 1703.29 371.35 1703.29 498.74"/><rect class="cls-11" x="1643.62" y="414" width="9.99" height="9.99"/><rect class="cls-11" x="1643.62" y="431.87" width="9.99" height="9.99"/><rect class="cls-11" x="1664.59" y="431.87" width="9.99" height="9.99"/><rect class="cls-11" x="1643.62" y="449.73" width="9.99" height="9.99"/><rect class="cls-11" x="1685.55" y="449.73" width="9.99" height="9.99"/><rect class="cls-11" x="1643.62" y="467.6" width="9.99" height="9.99"/><rect class="cls-11" x="1664.66" y="467.6" width="9.99" height="9.99"/><rect class="cls-11" x="1664.59" y="414" width="9.99" height="9.99"/><rect class="cls-11" x="1685.55" y="414" width="9.99" height="9.99"/></g><g class="cls-9"><polygon class="cls-6" points="830.9 502.19 763.63 502.19 763.63 400.91 830.9 374.81 830.9 502.19"/><rect class="cls-11" x="771.23" y="417.45" width="9.99" height="9.99"/><rect class="cls-11" x="771.23" y="435.32" width="9.99" height="9.99"/><rect class="cls-11" x="792.2" y="435.32" width="9.99" height="9.99"/><rect class="cls-11" x="771.23" y="453.19" width="9.99" height="9.99"/><rect class="cls-11" x="813.16" y="453.19" width="9.99" height="9.99"/><rect class="cls-11" x="771.23" y="471.06" width="9.99" height="9.99"/><rect class="cls-11" x="792.27" y="471.06" width="9.99" height="9.99"/><rect class="cls-11" x="792.2" y="417.45" width="9.99" height="9.99"/><rect class="cls-11" x="813.16" y="417.45" width="9.99" height="9.99"/></g><g class="cls-9"><polygon class="cls-10" points="759.8 502.19 684.14 502.19 684.14 388.29 759.8 358.94 759.8 502.19"/><rect class="cls-11" x="692.69" y="406.89" width="11.24" height="11.24"/><rect class="cls-11" x="692.69" y="426.99" width="11.24" height="11.24"/><rect class="cls-11" x="716.27" y="426.99" width="11.24" height="11.24"/><rect class="cls-11" x="692.69" y="447.08" width="11.24" height="11.24"/><rect class="cls-11" x="739.84" y="447.08" width="11.24" height="11.24"/><rect class="cls-11" x="692.69" y="467.18" width="11.24" height="11.24"/><rect class="cls-11" x="716.35" y="467.18" width="11.24" height="11.24"/><rect class="cls-11" x="716.27" y="406.89" width="11.24" height="11.24"/><rect class="cls-11" x="739.84" y="406.89" width="11.24" height="11.24"/></g><g class="cls-3"><polygon class="cls-12" points="1184.73 498.73 1111.17 498.73 1111.17 388 1184.73 359.46 1184.73 498.73"/><rect class="cls-11" x="1119.49" y="406.08" width="10.93" height="10.93"/><rect class="cls-11" x="1119.49" y="425.62" width="10.93" height="10.93"/><rect class="cls-11" x="1142.41" y="425.62" width="10.93" height="10.93"/><rect class="cls-11" x="1119.49" y="445.16" width="10.93" height="10.93"/><rect class="cls-11" x="1165.33" y="445.16" width="10.93" height="10.93"/><rect class="cls-11" x="1119.49" y="464.69" width="10.93" height="10.93"/><rect class="cls-11" x="1142.49" y="464.69" width="10.93" height="10.93"/><rect class="cls-11" x="1142.41" y="406.08" width="10.93" height="10.93"/><rect class="cls-11" x="1165.33" y="406.08" width="10.93" height="10.93"/></g><path class="cls-11" d="M1775.12,370.79c-2.55-.69-8.49-4.52-7.8-7.08s7.75-2.88,10.31-2.19,70.32,20.82,69.62,23.38S1777.68,371.48,1775.12,370.79Z"/><path class="cls-11" d="M1759.41,370.79c2.56-.69,8.49-4.52,7.8-7.08s-7.75-2.88-10.3-2.19-70.32,20.82-69.63,23.38S1756.85,371.48,1759.41,370.79Z"/><path class="cls-11" d="M1772.07,356.92c0,2.65-2.15,9.38-4.8,9.38s-4.8-6.73-4.8-9.38,1.74-73.31,4.39-73.31S1772.07,354.27,1772.07,356.92Z"/><polygon class="cls-11" points="1772.21 498.24 1761.82 498.24 1764.07 366.3 1769.97 366.3 1772.21 498.24"/><circle class="cls-13" cx="1767.02" cy="364.92" r="5.05"/><path class="cls-10" d="M1013.05,301.64h98.49a2,2,0,0,1,2,2v195a0,0,0,0,1,0,0H1011.05a0,0,0,0,1,0,0v-195A2,2,0,0,1,1013.05,301.64Z"/><rect class="cls-11" x="1023.43" y="321.18" width="11.07" height="16.29"/><rect class="cls-11" x="1043.41" y="321.18" width="11.07" height="16.29"/><rect class="cls-11" x="1043.41" y="377.64" width="11.07" height="16.29"/><rect class="cls-11" x="1043.41" y="405.87" width="11.07" height="16.29"/><rect class="cls-11" x="1023.43" y="349.41" width="11.07" height="16.29"/><rect class="cls-11" x="1023.43" y="377.64" width="11.07" height="16.29"/><rect class="cls-11" x="1023.43" y="405.87" width="11.07" height="16.29"/><rect class="cls-11" x="1070.11" y="405.87" width="11.07" height="16.29"/><rect class="cls-11" x="1070.11" y="349.41" width="11.07" height="16.29"/><rect class="cls-11" x="1090.09" y="349.41" width="11.07" height="16.29"/><rect class="cls-11" x="1023.43" y="462.32" width="11.07" height="16.29"/><rect class="cls-11" x="1070.11" y="462.32" width="11.07" height="16.29"/><rect class="cls-11" x="1090.09" y="462.32" width="11.07" height="16.29"/><rect class="cls-11" x="1090.09" y="377.64" width="11.07" height="16.29"/><rect class="cls-11" x="1043.41" y="434.09" width="11.07" height="16.29"/><rect class="cls-11" x="1023.43" y="434.09" width="11.07" height="16.29"/><rect class="cls-11" x="1090.09" y="434.09" width="11.07" height="16.29"/><rect class="cls-11" x="1090.09" y="321.18" width="11.07" height="16.29"/><rect class="cls-10" x="1032.01" y="292.52" width="60.58" height="9.12"/><g class="cls-3"><path class="cls-14" d="M1362.46,339.63h78.74a2,2,0,0,1,2,2V498.7a0,0,0,0,1,0,0h-82.74a0,0,0,0,1,0,0V341.63A2,2,0,0,1,1362.46,339.63Z"/><rect class="cls-11" x="1365.99" y="371.12" width="8.94" height="8.06"/><rect class="cls-11" x="1380.38" y="371.12" width="42.9" height="8.06"/><rect class="cls-11" x="1428.74" y="371.12" width="8.94" height="8.06"/><rect class="cls-11" x="1365.99" y="388.42" width="8.94" height="8.06"/><rect class="cls-11" x="1365.99" y="351.55" width="4.47" height="8.06"/><rect class="cls-11" x="1376.28" y="351.55" width="4.47" height="8.06"/><rect class="cls-11" x="1422.91" y="351.55" width="4.47" height="8.06"/><rect class="cls-11" x="1433.21" y="351.55" width="4.47" height="8.06"/><rect class="cls-11" x="1380.38" y="388.42" width="42.9" height="8.06"/><rect class="cls-11" x="1428.74" y="388.42" width="8.94" height="8.06"/><rect class="cls-11" x="1365.99" y="405.71" width="8.94" height="8.06"/><rect class="cls-11" x="1380.38" y="405.71" width="42.9" height="8.06"/><rect class="cls-11" x="1428.74" y="405.71" width="8.94" height="8.06"/><rect class="cls-11" x="1365.99" y="423.01" width="8.94" height="8.06"/><rect class="cls-11" x="1380.38" y="423.01" width="42.9" height="8.06"/><rect class="cls-11" x="1428.74" y="423.01" width="8.94" height="8.06"/><rect class="cls-11" x="1365.99" y="440.3" width="8.94" height="8.06"/><rect class="cls-11" x="1380.38" y="440.3" width="42.9" height="8.06"/><rect class="cls-11" x="1428.74" y="440.3" width="8.94" height="8.06"/><rect class="cls-11" x="1365.99" y="457.6" width="8.94" height="8.06"/><rect class="cls-11" x="1380.38" y="457.6" width="42.9" height="8.06"/><rect class="cls-11" x="1428.74" y="457.6" width="8.94" height="8.06"/><rect class="cls-11" x="1365.99" y="474.9" width="8.94" height="8.06"/><rect class="cls-11" x="1380.38" y="474.9" width="42.9" height="8.06"/><rect class="cls-11" x="1428.74" y="474.9" width="8.94" height="8.06"/></g><g class="cls-9"><path class="cls-10" d="M254,417.36h34.09a2,2,0,0,1,2,2V499a0,0,0,0,1,0,0H252a0,0,0,0,1,0,0V419.36A2,2,0,0,1,254,417.36Z"/><rect class="cls-11" x="252.88" y="432.19" width="11.56" height="3.7"/><rect class="cls-11" x="269.86" y="432.19" width="19.29" height="3.7"/><rect class="cls-11" x="252.88" y="486.36" width="11.56" height="3.7"/><rect class="cls-11" x="269.86" y="486.36" width="19.29" height="3.7"/><rect class="cls-11" x="252.88" y="463.98" width="11.56" height="3.7"/><rect class="cls-11" x="269.86" y="463.98" width="19.29" height="3.7"/><rect class="cls-11" x="252.88" y="448.32" width="16.98" height="3.7"/><rect class="cls-11" x="276.93" y="448.32" width="12.22" height="3.7"/><rect class="cls-11" x="252.88" y="471.81" width="16.98" height="3.7"/><rect class="cls-11" x="276.93" y="471.81" width="12.22" height="3.7"/><rect class="cls-11" x="252.88" y="440.5" width="36.27" height="3.7"/><rect class="cls-11" x="252.88" y="456.15" width="36.27" height="3.7"/><rect class="cls-11" x="252.88" y="479.08" width="36.27" height="3.7"/><rect class="cls-11" x="252.88" y="423.47" width="4.13" height="4.13"/><rect class="cls-11" x="261" y="423.47" width="4.13" height="4.13"/><rect class="cls-11" x="269.11" y="423.47" width="4.13" height="4.13"/></g><g class="cls-3"><polygon class="cls-4" points="1293.29 423.89 1293.33 423.89 1293.29 423.91 1293.29 423.89"/><polygon class="cls-4" points="1347.49 423.89 1347.49 423.91 1347.45 423.89 1347.49 423.89"/><path class="cls-5" d="M1274.71,404.48h76a2,2,0,0,1,2,2v17.43a0,0,0,0,1,0,0h-80a0,0,0,0,1,0,0V406.48A2,2,0,0,1,1274.71,404.48Z"/><polygon class="cls-15" points="1352.66 423.91 1352.66 499.2 1272.71 499.2 1272.71 423.91 1293.29 423.91 1293.33 423.89 1320.39 404.79 1347.45 423.89 1347.49 423.91 1352.66 423.91"/><polyline class="cls-7" points="1272.71 423.91 1293.29 423.91 1293.33 423.89 1320.39 404.79 1347.45 423.89 1347.49 423.91 1352.66 423.91"/><rect class="cls-8" x="1280.29" y="409.43" width="9.83" height="9.83"/><rect class="cls-8" x="1301.92" y="476.02" width="9.83" height="9.83"/><rect class="cls-8" x="1327.76" y="476.02" width="9.83" height="9.83"/><rect class="cls-8" x="1280.29" y="434.47" width="9.83" height="9.83"/><rect class="cls-8" x="1301.92" y="434.47" width="9.83" height="9.83"/><rect class="cls-8" x="1327.76" y="434.47" width="9.83" height="9.83"/><rect class="cls-8" x="1280.29" y="454.65" width="59.32" height="9.83"/></g><path class="cls-5" d="M1377.44,461.22a9.51,9.51,0,0,1,1.46,5c0,6.46-6.73,11.69-15,11.69s-15-5.23-15-11.69a9.49,9.49,0,0,1,1.45-5,8.71,8.71,0,0,1,3.58-15.16,10.46,10.46,0,1,1,20,0,8.71,8.71,0,0,1,3.57,15.14Z"/><path class="cls-16" d="M1371.44,463.74l-6.22,14.2.6,21h-3.91l.56-21L1355,460.25a.13.13,0,0,1,.24-.11l7.79,14.59.65-21.67c0-.2.24-.2.25,0l.79,22.4,6.52-11.82A.1.1,0,0,1,1371.44,463.74Z"/><polygon class="cls-17" points="1364.81 477.58 1364.82 477.66 1364.66 477.66 1364.81 477.58"/><polygon class="cls-17" points="1364.82 477.58 1364.81 477.58 1364.81 477.58 1364.82 477.58"/><polygon class="cls-17" points="1364.19 476.45 1364.35 476.73 1364.04 476.73 1364.19 476.45"/><polygon class="cls-17" points="1364.81 477.58 1364.82 477.66 1364.66 477.66 1364.81 477.58"/><polygon class="cls-17" points="1364.82 477.58 1364.81 477.58 1364.81 477.58 1364.82 477.58"/><polygon class="cls-17" points="1364.19 476.45 1364.35 476.73 1364.04 476.73 1364.19 476.45"/><polygon class="cls-17" points="1364.82 477.58 1364.81 477.58 1364.81 477.58 1364.82 477.58"/><polygon class="cls-17" points="1364.19 476.45 1364.35 476.73 1364.04 476.73 1364.19 476.45"/><polygon class="cls-17" points="1364.82 477.66 1364.66 477.66 1364.81 477.58 1364.82 477.66"/><path class="cls-6" d="M1303.19,461.16a9.59,9.59,0,0,1,1.45,5c0,6.46-6.73,11.7-15,11.7s-15-5.24-15-11.7a9.54,9.54,0,0,1,1.45-5A8.71,8.71,0,0,1,1279.6,446a10.45,10.45,0,1,1,20,0,8.71,8.71,0,0,1,3.58,15.13Z"/><path class="cls-16" d="M1297.18,463.68,1291,477.89l.59,21h-3.9l.56-21-7.46-17.7a.13.13,0,0,1,.24-.11l7.8,14.59.64-21.66c0-.21.25-.21.26,0l.78,22.39,6.52-11.81A.1.1,0,0,1,1297.18,463.68Z"/><polygon class="cls-17" points="1290.55 477.53 1290.56 477.6 1290.4 477.6 1290.55 477.53"/><polygon class="cls-17" points="1290.56 477.53 1290.55 477.53 1290.55 477.52 1290.56 477.53"/><polygon class="cls-17" points="1289.93 476.39 1290.09 476.67 1289.78 476.67 1289.93 476.39"/><polygon class="cls-17" points="1290.55 477.53 1290.56 477.6 1290.4 477.6 1290.55 477.53"/><polygon class="cls-17" points="1290.56 477.53 1290.55 477.53 1290.55 477.52 1290.56 477.53"/><polygon class="cls-17" points="1289.93 476.39 1290.09 476.67 1289.78 476.67 1289.93 476.39"/><polygon class="cls-17" points="1290.56 477.53 1290.55 477.53 1290.55 477.52 1290.56 477.53"/><polygon class="cls-17" points="1289.93 476.39 1290.09 476.67 1289.78 476.67 1289.93 476.39"/><polygon class="cls-17" points="1290.56 477.6 1290.4 477.6 1290.55 477.53 1290.56 477.6"/><rect class="cls-4" x="1714.1" y="483.64" width="5.95" height="15.04"/><polygon class="cls-18" points="1672.87 449.05 1727.63 447.86 1761.29 487.93 1706.54 489.13 1672.87 449.05"/><polygon class="cls-14" points="1706.4 468.02 1689.17 468.4 1672.87 449.05 1690.1 448.68 1706.4 468.02"/><polygon class="cls-14" points="1725.16 467.61 1707.94 467.99 1691.64 448.64 1708.86 448.27 1725.16 467.61"/><polygon class="cls-14" points="1743.93 467.2 1726.7 467.58 1710.4 448.23 1727.63 447.86 1743.93 467.2"/><polygon class="cls-14" points="1723.76 488.75 1706.54 489.13 1690.23 469.78 1707.46 469.41 1723.76 488.75"/><polygon class="cls-14" points="1742.52 488.34 1725.3 488.72 1709 469.37 1726.22 469 1742.52 488.34"/><polygon class="cls-14" points="1761.29 487.93 1744.07 488.31 1727.76 468.96 1744.99 468.59 1761.29 487.93"/><g class="cls-3"><path class="cls-5" d="M208.57,466.61a8.17,8.17,0,0,1,1.26,4.32c0,5.55-5.79,10.05-12.92,10.05S184,476.48,184,470.93a8.21,8.21,0,0,1,1.24-4.31,7.48,7.48,0,0,1,3.08-13,8.87,8.87,0,0,1-.38-2.59,9,9,0,1,1,17.57,2.6,7.48,7.48,0,0,1,3.07,13Z"/><path class="cls-16" d="M203.42,468.78,198.07,481l.52,18h-3.36l.48-18-6.4-15.2a.11.11,0,0,1,.2-.1l6.7,12.54.56-18.62c0-.17.2-.17.21,0l.68,19.24,5.6-10.15C203.31,468.59,203.46,468.67,203.42,468.78Z"/><polygon class="cls-17" points="197.72 480.67 197.72 480.74 197.59 480.74 197.72 480.67"/><polygon class="cls-17" points="197.72 480.67 197.72 480.67 197.72 480.67 197.72 480.67"/><polygon class="cls-17" points="197.19 479.7 197.32 479.94 197.05 479.94 197.19 479.7"/><polygon class="cls-17" points="197.72 480.67 197.72 480.74 197.59 480.74 197.72 480.67"/><polygon class="cls-17" points="197.72 480.67 197.72 480.67 197.72 480.67 197.72 480.67"/><polygon class="cls-17" points="197.19 479.7 197.32 479.94 197.05 479.94 197.19 479.7"/><polygon class="cls-17" points="197.72 480.67 197.72 480.67 197.72 480.67 197.72 480.67"/><polygon class="cls-17" points="197.19 479.7 197.32 479.94 197.05 479.94 197.19 479.7"/><polygon class="cls-17" points="197.72 480.74 197.59 480.74 197.72 480.67 197.72 480.74"/></g><g class="cls-3"><path class="cls-6" d="M194,463.88a13.45,13.45,0,1,1-26.9,0c0-7.43,6-38.12,13.45-38.12S194,456.45,194,463.88Z"/><path class="cls-16" d="M180.54,480l-.36-3.31,5.17-11.61a.15.15,0,0,1,.28.11Z"/><path class="cls-16" d="M179.92,475.24l.26-2.3L175,461.33a.15.15,0,0,0-.27.11Z"/><path class="cls-16" d="M180.55,469.19l-.21-1.76,4-8.89a.12.12,0,0,1,.22.09Z"/><path class="cls-16" d="M182.13,499h-3.07a.11.11,0,0,1-.11-.11l1.53-48.18a.11.11,0,1,1,.22,0l1.54,48.18A.11.11,0,0,1,182.13,499Z"/></g><g class="cls-9"><path class="cls-6" d="M310.51,463.88a13.45,13.45,0,1,1-26.9,0c0-7.43,6-38.12,13.45-38.12S310.51,456.45,310.51,463.88Z"/><path class="cls-16" d="M297,480l-.36-3.31,5.18-11.61a.15.15,0,0,1,.27.11Z"/><path class="cls-16" d="M296.38,475.24l.26-2.3-5.18-11.61a.15.15,0,0,0-.27.11Z"/><path class="cls-16" d="M297,469.19l-.2-1.76,4-8.89c.05-.12.25-.05.21.09Z"/><path class="cls-16" d="M298.59,499h-3.07a.11.11,0,0,1-.11-.11l1.53-48.18a.12.12,0,0,1,.23,0l1.53,48.18A.11.11,0,0,1,298.59,499Z"/></g><g class="cls-9"><path class="cls-6" d="M457,464.84a13.45,13.45,0,0,1-26.9,0c0-7.43,6-38.12,13.45-38.12S457,457.41,457,464.84Z"/><path class="cls-16" d="M443.53,481l-.36-3.3,5.18-11.61c.07-.17.33-.06.27.11Z"/><path class="cls-16" d="M442.92,476.19l.25-2.29L438,462.29a.14.14,0,0,0-.27.1Z"/><path class="cls-16" d="M443.54,470.15l-.2-1.76,4-8.89c.05-.13.25-.05.21.08Z"/><path class="cls-16" d="M445.12,500h-3.07a.11.11,0,0,1-.11-.12l1.54-48.18a.11.11,0,0,1,.22,0l1.53,48.18A.1.1,0,0,1,445.12,500Z"/></g><path class="cls-5" d="M1804.06,446.74a17.12,17.12,0,0,1,1.46,7c0,9-6.74,16.22-15,16.22s-15-7.26-15-16.22a17.14,17.14,0,0,1,1.45-6.94,14.32,14.32,0,0,1-3.13-9.27c0-5.71,2.86-10.49,6.71-11.75a19.64,19.64,0,0,1-.44-4.19c0-8,4.68-14.49,10.45-14.49s10.46,6.49,10.46,14.49a19.74,19.74,0,0,1-.44,4.2c3.83,1.27,6.68,6,6.68,11.74A14.28,14.28,0,0,1,1804.06,446.74Z"/><path class="cls-16" d="M1798.06,450.24l-6.23,19.69.6,29.06h-3.91l.56-29.06-7.45-24.53c-.07-.21.15-.36.23-.16l7.8,20.23.65-30c0-.28.24-.28.25,0l.79,31,6.52-16.37C1797.93,449.94,1798.11,450.06,1798.06,450.24Z"/><polygon class="cls-17" points="1791.42 469.43 1791.43 469.53 1791.27 469.53 1791.42 469.43"/><polygon class="cls-17" points="1791.43 469.43 1791.42 469.43 1791.42 469.43 1791.43 469.43"/><polygon class="cls-17" points="1790.8 467.86 1790.96 468.25 1790.64 468.25 1790.8 467.86"/><polygon class="cls-17" points="1791.42 469.43 1791.43 469.53 1791.27 469.53 1791.42 469.43"/><polygon class="cls-17" points="1791.43 469.43 1791.42 469.43 1791.42 469.43 1791.43 469.43"/><polygon class="cls-17" points="1790.8 467.86 1790.96 468.25 1790.64 468.25 1790.8 467.86"/><polygon class="cls-17" points="1791.43 469.43 1791.42 469.43 1791.42 469.43 1791.43 469.43"/><polygon class="cls-17" points="1790.8 467.86 1790.96 468.25 1790.64 468.25 1790.8 467.86"/><polygon class="cls-17" points="1791.43 469.53 1791.27 469.53 1791.42 469.43 1791.43 469.53"/><g class="cls-3"><path class="cls-5" d="M1844.14,460.38a9.78,9.78,0,0,1,1.49,5.16c0,6.61-6.9,12-15.4,12s-15.41-5.37-15.41-12a9.82,9.82,0,0,1,1.49-5.14,8.92,8.92,0,0,1,3.67-15.53,10.55,10.55,0,0,1-.46-3.09,10.71,10.71,0,1,1,21.41,0,10.91,10.91,0,0,1-.45,3.1,8.92,8.92,0,0,1,3.66,15.5Z"/><path class="cls-16" d="M1838,463l-6.37,14.55.61,21.47h-4l.57-21.47-7.63-18.13a.13.13,0,0,1,.24-.11l8,15,.66-22.2c0-.21.25-.21.26,0l.8,22.94,6.68-12.1A.11.11,0,0,1,1838,463Z"/><polygon class="cls-17" points="1831.2 477.15 1831.2 477.23 1831.04 477.23 1831.2 477.15"/><polygon class="cls-17" points="1831.2 477.15 1831.2 477.15 1831.2 477.14 1831.2 477.15"/><polygon class="cls-17" points="1830.56 475.99 1830.72 476.27 1830.4 476.27 1830.56 475.99"/><polygon class="cls-17" points="1831.2 477.15 1831.2 477.23 1831.04 477.23 1831.2 477.15"/><polygon class="cls-17" points="1831.2 477.15 1831.2 477.15 1831.2 477.14 1831.2 477.15"/><polygon class="cls-17" points="1830.56 475.99 1830.72 476.27 1830.4 476.27 1830.56 475.99"/><polygon class="cls-17" points="1831.2 477.15 1831.2 477.15 1831.2 477.14 1831.2 477.15"/><polygon class="cls-17" points="1830.56 475.99 1830.72 476.27 1830.4 476.27 1830.56 475.99"/><polygon class="cls-17" points="1831.2 477.23 1831.04 477.23 1831.2 477.15 1831.2 477.23"/></g><g class="cls-3"><path class="cls-5" d="M1637.69,460.38a9.87,9.87,0,0,1,1.49,5.16c0,6.61-6.9,12-15.4,12s-15.41-5.37-15.41-12a9.82,9.82,0,0,1,1.49-5.14,8.93,8.93,0,0,1,3.66-15.53,10.89,10.89,0,0,1-.45-3.09,10.71,10.71,0,1,1,21.41,0,10.91,10.91,0,0,1-.45,3.1,8.92,8.92,0,0,1,3.66,15.5Z"/><path class="cls-16" d="M1631.54,463l-6.37,14.55.61,21.47h-4l.57-21.47-7.63-18.13a.13.13,0,0,1,.24-.11l8,15,.66-22.2c0-.21.25-.21.26,0l.8,22.94,6.68-12.1A.11.11,0,0,1,1631.54,463Z"/><polygon class="cls-17" points="1624.75 477.15 1624.75 477.23 1624.59 477.23 1624.75 477.15"/><polygon class="cls-17" points="1624.75 477.15 1624.75 477.15 1624.75 477.14 1624.75 477.15"/><polygon class="cls-17" points="1624.11 475.99 1624.27 476.27 1623.95 476.27 1624.11 475.99"/><polygon class="cls-17" points="1624.75 477.15 1624.75 477.23 1624.59 477.23 1624.75 477.15"/><polygon class="cls-17" points="1624.75 477.15 1624.75 477.15 1624.75 477.14 1624.75 477.15"/><polygon class="cls-17" points="1624.11 475.99 1624.27 476.27 1623.95 476.27 1624.11 475.99"/><polygon class="cls-17" points="1624.75 477.15 1624.75 477.15 1624.75 477.14 1624.75 477.15"/><polygon class="cls-17" points="1624.11 475.99 1624.27 476.27 1623.95 476.27 1624.11 475.99"/><polygon class="cls-17" points="1624.75 477.23 1624.59 477.23 1624.75 477.15 1624.75 477.23"/></g><g class="cls-3"><path class="cls-5" d="M1915.46,460.38a9.79,9.79,0,0,1,1.5,5.16c0,6.61-6.9,12-15.41,12s-15.4-5.37-15.4-12a9.81,9.81,0,0,1,1.48-5.14,8.92,8.92,0,0,1,3.67-15.53,10.55,10.55,0,0,1-.46-3.09,10.71,10.71,0,0,1,21.42,0,10.57,10.57,0,0,1-.46,3.1,8.92,8.92,0,0,1,3.66,15.5Z"/><path class="cls-16" d="M1909.31,463l-6.37,14.55.61,21.47h-4l.58-21.47-7.64-18.13a.13.13,0,0,1,.24-.11l8,15,.66-22.2c0-.21.25-.21.26,0l.8,22.94,6.68-12.1A.11.11,0,0,1,1909.31,463Z"/><polygon class="cls-17" points="1902.52 477.15 1902.53 477.23 1902.37 477.23 1902.52 477.15"/><polygon class="cls-17" points="1902.53 477.15 1902.52 477.15 1902.52 477.14 1902.53 477.15"/><polygon class="cls-17" points="1901.88 475.99 1902.05 476.27 1901.72 476.27 1901.88 475.99"/><polygon class="cls-17" points="1902.52 477.15 1902.53 477.23 1902.37 477.23 1902.52 477.15"/><polygon class="cls-17" points="1902.53 477.15 1902.52 477.15 1902.52 477.14 1902.53 477.15"/><polygon class="cls-17" points="1901.88 475.99 1902.05 476.27 1901.72 476.27 1901.88 475.99"/><polygon class="cls-17" points="1902.53 477.15 1902.52 477.15 1902.52 477.14 1902.53 477.15"/><polygon class="cls-17" points="1901.88 475.99 1902.05 476.27 1901.72 476.27 1901.88 475.99"/><polygon class="cls-17" points="1902.53 477.23 1902.37 477.23 1902.52 477.15 1902.53 477.23"/></g><g class="cls-3"><path class="cls-5" d="M1876.7,466.61a8.26,8.26,0,0,1,1.25,4.32c0,5.55-5.78,10.05-12.92,10.05s-12.92-4.5-12.92-10.05a8.22,8.22,0,0,1,1.25-4.31,7.48,7.48,0,0,1,3.07-13,9.22,9.22,0,0,1-.38-2.59,9,9,0,1,1,17.58,2.6,7.49,7.49,0,0,1,3.07,13Z"/><path class="cls-16" d="M1871.54,468.78,1866.2,481l.51,18h-3.35l.48-18-6.41-15.2a.11.11,0,0,1,.2-.1l6.71,12.54.55-18.62c0-.17.21-.17.22,0l.67,19.24,5.6-10.15A.09.09,0,0,1,1871.54,468.78Z"/><polygon class="cls-17" points="1865.85 480.67 1865.85 480.74 1865.71 480.74 1865.85 480.67"/><polygon class="cls-17" points="1865.85 480.67 1865.85 480.67 1865.85 480.67 1865.85 480.67"/><polygon class="cls-17" points="1865.31 479.7 1865.45 479.94 1865.18 479.94 1865.31 479.7"/><polygon class="cls-17" points="1865.85 480.67 1865.85 480.74 1865.71 480.74 1865.85 480.67"/><polygon class="cls-17" points="1865.85 480.67 1865.85 480.67 1865.85 480.67 1865.85 480.67"/><polygon class="cls-17" points="1865.31 479.7 1865.45 479.94 1865.18 479.94 1865.31 479.7"/><polygon class="cls-17" points="1865.85 480.67 1865.85 480.67 1865.85 480.67 1865.85 480.67"/><polygon class="cls-17" points="1865.31 479.7 1865.45 479.94 1865.18 479.94 1865.31 479.7"/><polygon class="cls-17" points="1865.85 480.74 1865.71 480.74 1865.85 480.67 1865.85 480.74"/></g><path class="cls-6" d="M1823.8,463.88a13.45,13.45,0,0,1-26.9,0c0-7.43,6-38.12,13.45-38.12S1823.8,456.45,1823.8,463.88Z"/><path class="cls-16" d="M1810.3,480l-.37-3.31,5.18-11.61a.15.15,0,0,1,.27.11Z"/><path class="cls-16" d="M1809.68,475.24l.25-2.3-5.17-11.61a.15.15,0,0,0-.28.11Z"/><path class="cls-16" d="M1810.3,469.19l-.2-1.76,4-8.89a.11.11,0,0,1,.21.09Z"/><path class="cls-16" d="M1811.89,499h-3.08a.11.11,0,0,1-.11-.11l1.54-48.18a.11.11,0,1,1,.22,0l1.54,48.18A.11.11,0,0,1,1811.89,499Z"/><path class="cls-6" d="M1618.54,463.88a13.45,13.45,0,0,1-26.9,0c0-7.43,6-38.12,13.45-38.12S1618.54,456.45,1618.54,463.88Z"/><path class="cls-16" d="M1605,480l-.37-3.31,5.18-11.61a.15.15,0,0,1,.27.11Z"/><path class="cls-16" d="M1604.42,475.24l.25-2.3-5.18-11.61a.15.15,0,0,0-.27.11Z"/><path class="cls-16" d="M1605,469.19l-.2-1.76,4-8.89c0-.12.25-.05.21.09Z"/><path class="cls-16" d="M1606.62,499h-3.07a.11.11,0,0,1-.11-.11L1605,450.7a.11.11,0,1,1,.22,0l1.53,48.18A.1.1,0,0,1,1606.62,499Z"/><path class="cls-6" d="M1865,463.88a13.45,13.45,0,0,1-26.9,0c0-7.43,6-38.12,13.45-38.12S1865,456.45,1865,463.88Z"/><path class="cls-16" d="M1851.52,480l-.37-3.31,5.18-11.61a.15.15,0,0,1,.27.11Z"/><path class="cls-16" d="M1850.9,475.24l.25-2.3L1846,461.33a.15.15,0,0,0-.28.11Z"/><path class="cls-16" d="M1851.52,469.19l-.2-1.76,4-8.89a.11.11,0,0,1,.21.09Z"/><path class="cls-16" d="M1853.1,499H1850a.11.11,0,0,1-.11-.11l1.54-48.18a.11.11,0,1,1,.22,0l1.54,48.18A.11.11,0,0,1,1853.1,499Z"/><rect class="cls-19" x="116.39" y="484.11" width="5.95" height="15.04"/><g class="cls-3"><polygon class="cls-14" points="370.88 498.79 304.56 498.79 321.22 397.22 324.88 374.95 350.56 374.95 354.21 397.22 370.88 498.79"/><path class="cls-14" d="M349.23,366.12a6.45,6.45,0,0,1-9.12-9.12c3.76-3.76,18.07-4.71,17.24-3.88C355.68,354.79,351.75,363.6,349.23,366.12Z"/><path class="cls-14" d="M338.07,350.87a9.34,9.34,0,1,1-13.21,13.2c-5.44-5.44-6.81-26.16-5.6-24.95C321.68,341.54,334.42,347.22,338.07,350.87Z"/><polygon class="cls-11" points="354.21 397.22 321.22 397.22 324.88 374.95 350.56 374.95 354.21 397.22"/></g><polygon class="cls-10" points="427.58 498.93 342.37 498.93 363.78 368.43 368.48 339.81 401.48 339.81 406.17 368.43 427.58 498.93"/><path class="cls-14" d="M399.77,328.46a8.28,8.28,0,1,1-11.71-11.71c4.82-4.83,23.21-6.05,22.14-5C408.05,313.92,403,325.23,399.77,328.46Z"/><path class="cls-14" d="M385.43,308.87a12,12,0,1,1-17,17c-7-7-8.75-33.62-7.2-32.06C364.37,296.89,380.75,304.19,385.43,308.87Z"/><polygon class="cls-11" points="406.17 368.43 363.78 368.43 368.48 339.81 401.48 339.81 406.17 368.43"/><path class="cls-5" d="M846.64,461.12a9.63,9.63,0,0,1,1.47,5.07c0,6.51-6.79,11.79-15.16,11.79s-15.15-5.28-15.15-11.79a9.58,9.58,0,0,1,1.46-5.05,8.79,8.79,0,0,1,3.6-15.29,10.54,10.54,0,1,1,20.18,0,8.78,8.78,0,0,1,3.6,15.26Z"/><path class="cls-16" d="M840.59,463.66,834.32,478l.6,21.13H831l.56-21.13L824,460.14a.13.13,0,0,1,.23-.11l7.86,14.71.66-21.84c0-.21.24-.21.25,0l.79,22.57,6.57-11.91A.11.11,0,0,1,840.59,463.66Z"/><polygon class="cls-17" points="833.91 477.62 833.91 477.69 833.75 477.69 833.91 477.62"/><polygon class="cls-17" points="833.91 477.62 833.91 477.62 833.91 477.61 833.91 477.62"/><polygon class="cls-17" points="833.28 476.47 833.44 476.75 833.12 476.75 833.28 476.47"/><polygon class="cls-17" points="833.91 477.62 833.91 477.69 833.75 477.69 833.91 477.62"/><polygon class="cls-17" points="833.91 477.62 833.91 477.62 833.91 477.61 833.91 477.62"/><polygon class="cls-17" points="833.28 476.47 833.44 476.75 833.12 476.75 833.28 476.47"/><polygon class="cls-17" points="833.91 477.62 833.91 477.62 833.91 477.61 833.91 477.62"/><polygon class="cls-17" points="833.28 476.47 833.44 476.75 833.12 476.75 833.28 476.47"/><polygon class="cls-17" points="833.91 477.69 833.75 477.69 833.91 477.62 833.91 477.69"/><path class="cls-14" d="M452.28,318.47H542a2,2,0,0,1,2,2V498.69a0,0,0,0,1,0,0H450.28a0,0,0,0,1,0,0V320.47A2,2,0,0,1,452.28,318.47Z"/><rect class="cls-11" x="461.6" y="336.35" width="10.13" height="14.89"/><rect class="cls-11" x="479.87" y="336.35" width="10.13" height="14.89"/><rect class="cls-11" x="479.87" y="387.98" width="10.13" height="14.89"/><rect class="cls-11" x="479.87" y="413.8" width="10.13" height="14.89"/><rect class="cls-11" x="461.6" y="362.16" width="10.13" height="14.89"/><rect class="cls-11" x="461.6" y="387.98" width="10.13" height="14.89"/><rect class="cls-11" x="461.6" y="413.8" width="10.13" height="14.89"/><rect class="cls-11" x="504.29" y="413.8" width="10.13" height="14.89"/><rect class="cls-11" x="504.29" y="362.16" width="10.13" height="14.89"/><rect class="cls-11" x="522.57" y="362.16" width="10.13" height="14.89"/><rect class="cls-11" x="461.6" y="465.43" width="10.13" height="14.89"/><rect class="cls-11" x="504.29" y="465.43" width="10.13" height="14.89"/><rect class="cls-11" x="522.57" y="465.43" width="10.13" height="14.89"/><rect class="cls-11" x="522.57" y="387.98" width="10.13" height="14.89"/><rect class="cls-11" x="479.87" y="439.62" width="10.13" height="14.89"/><rect class="cls-11" x="461.6" y="439.62" width="10.13" height="14.89"/><rect class="cls-11" x="522.57" y="439.62" width="10.13" height="14.89"/><rect class="cls-11" x="522.57" y="336.35" width="10.13" height="14.89"/><rect class="cls-14" x="469.44" y="310.13" width="55.41" height="8.34"/><path class="cls-6" d="M441,463.88a13.45,13.45,0,1,1-26.9,0c0-7.43,6-38.12,13.45-38.12S441,456.45,441,463.88Z"/><path class="cls-16" d="M427.53,480l-.37-3.31,5.18-11.61a.15.15,0,0,1,.27.11Z"/><path class="cls-16" d="M426.91,475.24l.25-2.3L422,461.33a.15.15,0,0,0-.28.11Z"/><path class="cls-16" d="M427.53,469.19l-.2-1.76,4-8.89a.11.11,0,0,1,.21.09Z"/><path class="cls-16" d="M429.12,499h-3.07a.1.1,0,0,1-.11-.11l1.53-48.18a.11.11,0,1,1,.22,0l1.54,48.18A.11.11,0,0,1,429.12,499Z"/><g class="cls-3"><path class="cls-12" d="M1504,318.47h89.74a2,2,0,0,1,2,2V498.69a0,0,0,0,1,0,0H1502a0,0,0,0,1,0,0V320.47A2,2,0,0,1,1504,318.47Z"/><rect class="cls-11" x="1513.34" y="336.35" width="10.13" height="14.89"/><rect class="cls-11" x="1531.61" y="336.35" width="10.13" height="14.89"/><rect class="cls-11" x="1531.61" y="387.98" width="10.13" height="14.89"/><rect class="cls-11" x="1531.61" y="413.8" width="10.13" height="14.89"/><rect class="cls-11" x="1513.34" y="362.16" width="10.13" height="14.89"/><rect class="cls-11" x="1513.34" y="387.98" width="10.13" height="14.89"/><rect class="cls-11" x="1513.34" y="413.8" width="10.13" height="14.89"/><rect class="cls-11" x="1556.04" y="413.8" width="10.13" height="14.89"/><rect class="cls-11" x="1556.04" y="362.16" width="10.13" height="14.89"/><rect class="cls-11" x="1574.31" y="362.16" width="10.13" height="14.89"/><rect class="cls-11" x="1513.34" y="465.43" width="10.13" height="14.89"/><rect class="cls-11" x="1556.04" y="465.43" width="10.13" height="14.89"/><rect class="cls-11" x="1574.31" y="465.43" width="10.13" height="14.89"/><rect class="cls-11" x="1574.31" y="387.98" width="10.13" height="14.89"/><rect class="cls-11" x="1531.61" y="439.62" width="10.13" height="14.89"/><rect class="cls-11" x="1513.34" y="439.62" width="10.13" height="14.89"/><rect class="cls-11" x="1574.31" y="439.62" width="10.13" height="14.89"/><rect class="cls-11" x="1574.31" y="336.35" width="10.13" height="14.89"/><rect class="cls-12" x="1521.18" y="310.13" width="55.41" height="8.34"/></g><rect class="cls-14" x="1169.86" y="269.93" width="97.09" height="228.76"/><rect class="cls-11" x="1177.76" y="351.35" width="9.19" height="13.52"/><rect class="cls-11" x="1194.34" y="351.35" width="9.19" height="13.52"/><rect class="cls-11" x="1194.34" y="398.22" width="9.19" height="13.52"/><rect class="cls-11" x="1194.34" y="421.65" width="9.19" height="13.52"/><rect class="cls-11" x="1177.76" y="374.79" width="9.19" height="13.52"/><rect class="cls-11" x="1177.76" y="398.22" width="9.19" height="13.52"/><rect class="cls-11" x="1177.76" y="421.65" width="9.19" height="13.52"/><rect class="cls-11" x="1216.51" y="421.65" width="9.19" height="13.52"/><rect class="cls-11" x="1216.51" y="374.79" width="9.19" height="13.52"/><rect class="cls-11" x="1233.09" y="374.79" width="9.19" height="13.52"/><rect class="cls-11" x="1177.76" y="327.92" width="9.19" height="13.52"/><rect class="cls-11" x="1216.51" y="327.92" width="9.19" height="13.52"/><rect class="cls-11" x="1233.09" y="327.92" width="9.19" height="13.52"/><rect class="cls-11" x="1249.85" y="327.92" width="9.19" height="13.52"/><rect class="cls-11" x="1249.85" y="374.79" width="9.19" height="13.52"/><rect class="cls-11" x="1249.85" y="421.65" width="9.19" height="13.52"/><rect class="cls-11" x="1249.85" y="468.51" width="9.19" height="13.52"/><rect class="cls-11" x="1177.76" y="468.51" width="9.19" height="13.52"/><rect class="cls-11" x="1216.51" y="468.51" width="9.19" height="13.52"/><rect class="cls-11" x="1233.09" y="468.51" width="9.19" height="13.52"/><rect class="cls-11" x="1233.09" y="398.22" width="9.19" height="13.52"/><rect class="cls-11" x="1194.34" y="445.08" width="9.19" height="13.52"/><rect class="cls-11" x="1177.76" y="445.08" width="9.19" height="13.52"/><rect class="cls-11" x="1233.09" y="445.08" width="9.19" height="13.52"/><rect class="cls-11" x="1233.09" y="351.35" width="9.19" height="13.52"/><rect class="cls-11" x="1177.76" y="301.61" width="9.19" height="13.52"/><rect class="cls-11" x="1194.34" y="301.61" width="9.19" height="13.52"/><rect class="cls-11" x="1233.09" y="301.61" width="9.19" height="13.52"/><rect class="cls-14" x="1181.78" y="242.23" width="73.24" height="27.7"/><rect class="cls-14" x="1195.66" y="223.14" width="45.48" height="19.08"/><rect class="cls-4" x="1218.4" y="174.63" width="1.35" height="48.51"/><path class="cls-5" d="M1160.84,451.53a18.23,18.23,0,1,1-36.45,0c0-10.06,8.16-51.65,18.22-51.65S1160.84,441.47,1160.84,451.53Z"/><path class="cls-16" d="M1142.54,473.42l-.49-4.47,7-15.73a.2.2,0,0,1,.37.14Z"/><path class="cls-16" d="M1141.7,466.92l.35-3.11-7-15.73a.2.2,0,0,0-.37.14Z"/><path class="cls-16" d="M1142.55,458.73l-.27-2.39,5.38-12a.15.15,0,0,1,.28.11Z"/><path class="cls-16" d="M1144.69,499.11h-4.16a.16.16,0,0,1-.15-.16l2.08-65.28a.16.16,0,0,1,.31,0l2.08,65.28A.16.16,0,0,1,1144.69,499.11Z"/><g class="cls-20"><path class="cls-5" d="M974.29,451.53a18.23,18.23,0,1,1-36.45,0c0-10.06,8.16-51.65,18.22-51.65S974.29,441.47,974.29,451.53Z"/><path class="cls-16" d="M956,473.42,955.5,469l7-15.73a.2.2,0,0,1,.37.14Z"/><path class="cls-16" d="M955.15,466.92l.35-3.11-7-15.73a.2.2,0,0,0-.37.14Z"/><path class="cls-16" d="M956,458.73l-.28-2.39,5.38-12a.16.16,0,0,1,.29.11Z"/><path class="cls-16" d="M958.14,499.11H954a.16.16,0,0,1-.15-.16l2.08-65.28a.15.15,0,1,1,.3,0L958.29,499A.14.14,0,0,1,958.14,499.11Z"/></g><g class="cls-20"><path class="cls-5" d="M681.51,461.13a15.31,15.31,0,1,1-30.61,0c0-8.45,6.86-43.37,15.31-43.37S681.51,452.68,681.51,461.13Z"/><path class="cls-16" d="M666.15,479.51l-.42-3.75,5.89-13.22a.17.17,0,0,1,.32.13Z"/><path class="cls-16" d="M665.44,474.05l.29-2.61-5.89-13.21a.17.17,0,0,0-.31.12Z"/><path class="cls-16" d="M666.15,467.17l-.23-2,4.52-10.11a.13.13,0,0,1,.24.09Z"/><path class="cls-16" d="M668,501.08h-3.49a.13.13,0,0,1-.13-.13l1.75-54.82a.13.13,0,1,1,.25,0L668.08,501A.13.13,0,0,1,668,501.08Z"/></g><path class="cls-19" d="M1168.27,479.1l2.42-11.43c.25-1.28,1.75-2.23,3.52-2.23h21a4,4,0,0,1,3,1.22l12,12.44"/><path class="cls-6" d="M1220.19,493.43a2.67,2.67,0,0,1-2.54,1.91H1170.8a2.65,2.65,0,0,1-2.53-1.91,2.76,2.76,0,0,1-.13-.82l.13-13.51h44.09a8.09,8.09,0,0,1,7.66,7.76l.29,5.62A3,3,0,0,1,1220.19,493.43Z"/><circle class="cls-19" cx="1177.26" cy="493.43" r="5.79"/><path class="cls-11" d="M1171.91,477.92l2-9.27a2.81,2.81,0,0,1,2.92-1.81h17.33a3.37,3.37,0,0,1,2.5,1l9.92,10.09"/><rect class="cls-19" x="1185.92" y="466.84" width="1.2" height="11.07"/><path class="cls-15" d="M1168.27,479.1h44.09a8.09,8.09,0,0,1,7.66,7.76l.29,5.62a3,3,0,0,1-.12,1,2.67,2.67,0,0,1-2.54,1.91"/><circle class="cls-19" cx="1210.68" cy="493.43" r="5.79"/><path class="cls-19" d="M1220.19,493.43a2.67,2.67,0,0,1-2.54,1.91H1170.8a2.65,2.65,0,0,1-2.53-1.91Z"/><path class="cls-6" d="M766.07,451.53a18.23,18.23,0,1,1-36.45,0c0-10.06,8.16-51.65,18.23-51.65S766.07,441.47,766.07,451.53Z"/><path class="cls-16" d="M747.78,473.42l-.5-4.47,7-15.73a.2.2,0,0,1,.37.14Z"/><path class="cls-16" d="M746.94,466.92l.34-3.11-7-15.73a.2.2,0,0,0-.37.14Z"/><path class="cls-16" d="M747.78,458.73l-.27-2.39,5.38-12c.08-.17.35-.07.28.11Z"/><path class="cls-16" d="M749.93,499.11h-4.16a.14.14,0,0,1-.15-.16l2.08-65.28a.15.15,0,1,1,.3,0L750.08,499A.16.16,0,0,1,749.93,499.11Z"/><path class="cls-5" d="M1654.86,446.74a13.22,13.22,0,0,1,2,7c0,9-9.34,16.22-20.85,16.22s-20.85-7.26-20.85-16.22a13.28,13.28,0,0,1,2-6.94,12.08,12.08,0,0,1,5-21,14.49,14.49,0,1,1,27.75,0,12.08,12.08,0,0,1,4.95,21Z"/><path class="cls-16" d="M1646.54,450.24l-8.62,19.69.83,29.06h-5.42l.78-29.06-10.33-24.53a.18.18,0,0,1,.32-.16l10.81,20.23.9-30c0-.28.34-.28.35,0l1.09,31,9-16.37A.15.15,0,1,1,1646.54,450.24Z"/><polygon class="cls-17" points="1637.35 469.43 1637.36 469.53 1637.14 469.53 1637.35 469.43"/><polygon class="cls-17" points="1637.36 469.43 1637.35 469.43 1637.35 469.43 1637.36 469.43"/><polygon class="cls-17" points="1636.49 467.86 1636.71 468.25 1636.28 468.25 1636.49 467.86"/><polygon class="cls-17" points="1637.35 469.43 1637.36 469.53 1637.14 469.53 1637.35 469.43"/><polygon class="cls-17" points="1637.36 469.43 1637.35 469.43 1637.35 469.43 1637.36 469.43"/><polygon class="cls-17" points="1636.49 467.86 1636.71 468.25 1636.28 468.25 1636.49 467.86"/><polygon class="cls-17" points="1637.36 469.43 1637.35 469.43 1637.35 469.43 1637.36 469.43"/><polygon class="cls-17" points="1636.49 467.86 1636.71 468.25 1636.28 468.25 1636.49 467.86"/><polygon class="cls-17" points="1637.36 469.53 1637.14 469.53 1637.35 469.43 1637.36 469.53"/><g class="cls-3"><polygon class="cls-6" points="1502.89 498.69 1443.36 498.69 1443.36 409.07 1502.89 385.97 1502.89 498.69"/><rect class="cls-11" x="1450.09" y="423.7" width="8.84" height="8.84"/><rect class="cls-11" x="1450.09" y="439.52" width="8.84" height="8.84"/><rect class="cls-11" x="1468.64" y="439.52" width="8.84" height="8.84"/><rect class="cls-11" x="1450.09" y="455.33" width="8.84" height="8.84"/><rect class="cls-11" x="1487.19" y="455.33" width="8.84" height="8.84"/><rect class="cls-11" x="1450.09" y="471.14" width="8.84" height="8.84"/><rect class="cls-11" x="1468.7" y="471.14" width="8.84" height="8.84"/><rect class="cls-11" x="1468.64" y="423.7" width="8.84" height="8.84"/><rect class="cls-11" x="1487.19" y="423.7" width="8.84" height="8.84"/></g><path class="cls-5" d="M1901.94,446.74a13.31,13.31,0,0,1,2,7c0,9-9.33,16.22-20.85,16.22s-20.84-7.26-20.84-16.22a13.19,13.19,0,0,1,2-6.94,12.08,12.08,0,0,1,5-21,14.49,14.49,0,1,1,28.36-4.19,14.23,14.23,0,0,1-.62,4.2,12.07,12.07,0,0,1,5,21Z"/><path class="cls-16" d="M1893.62,450.24,1885,469.93l.82,29.06h-5.41l.78-29.06-10.34-24.53a.18.18,0,0,1,.33-.16L1882,465.47l.9-30c0-.28.33-.28.35,0l1.08,31,9-16.37A.15.15,0,1,1,1893.62,450.24Z"/><polygon class="cls-17" points="1884.43 469.43 1884.43 469.53 1884.22 469.53 1884.43 469.43"/><polygon class="cls-17" points="1884.43 469.43 1884.43 469.43 1884.43 469.43 1884.43 469.43"/><polygon class="cls-17" points="1883.57 467.86 1883.78 468.25 1883.35 468.25 1883.57 467.86"/><polygon class="cls-17" points="1884.43 469.43 1884.43 469.53 1884.22 469.53 1884.43 469.43"/><polygon class="cls-17" points="1884.43 469.43 1884.43 469.43 1884.43 469.43 1884.43 469.43"/><polygon class="cls-17" points="1883.57 467.86 1883.78 468.25 1883.35 468.25 1883.57 467.86"/><polygon class="cls-17" points="1884.43 469.43 1884.43 469.43 1884.43 469.43 1884.43 469.43"/><polygon class="cls-17" points="1883.57 467.86 1883.78 468.25 1883.35 468.25 1883.57 467.86"/><polygon class="cls-17" points="1884.43 469.53 1884.22 469.53 1884.43 469.43 1884.43 469.53"/><path class="cls-5" d="M226.36,446.74a13.21,13.21,0,0,1,2,7c0,9-9.33,16.22-20.84,16.22s-20.85-7.26-20.85-16.22a13.19,13.19,0,0,1,2-6.94,12.08,12.08,0,0,1,5-21,14.48,14.48,0,1,1,27.75,0,12.08,12.08,0,0,1,5,21Z"/><path class="cls-16" d="M218,450.24l-8.62,19.69.83,29.06h-5.42l.78-29.06L195.28,445.4a.18.18,0,0,1,.32-.16l10.81,20.23.9-30c0-.28.34-.28.35,0l1.09,31,9-16.37A.15.15,0,1,1,218,450.24Z"/><polygon class="cls-17" points="208.85 469.43 208.85 469.53 208.64 469.53 208.85 469.43"/><polygon class="cls-17" points="208.85 469.43 208.85 469.43 208.85 469.43 208.85 469.43"/><polygon class="cls-17" points="207.99 467.86 208.21 468.25 207.77 468.25 207.99 467.86"/><polygon class="cls-17" points="208.85 469.43 208.85 469.53 208.64 469.53 208.85 469.43"/><polygon class="cls-17" points="208.85 469.43 208.85 469.43 208.85 469.43 208.85 469.43"/><polygon class="cls-17" points="207.99 467.86 208.21 468.25 207.77 468.25 207.99 467.86"/><polygon class="cls-17" points="208.85 469.43 208.85 469.43 208.85 469.43 208.85 469.43"/><polygon class="cls-17" points="207.99 467.86 208.21 468.25 207.77 468.25 207.99 467.86"/><polygon class="cls-17" points="208.85 469.53 208.64 469.53 208.85 469.43 208.85 469.53"/><g class="cls-9"><path class="cls-5" d="M105.22,435.89a16.06,16.06,0,0,1,2.44,8.42c0,10.81-11.27,19.58-25.17,19.58s-25.18-8.77-25.18-19.58a15.94,15.94,0,0,1,2.43-8.39,14.58,14.58,0,0,1,6-25.38,17.49,17.49,0,1,1,33.51,0,14.59,14.59,0,0,1,6,25.34Z"/><path class="cls-16" d="M95.17,440.11,84.76,463.89l1,35.1H79.22l.94-35.1L67.68,434.27a.22.22,0,0,1,.39-.19l13.06,24.43,1.08-36.27c0-.34.41-.34.42,0L84,459.73,94.86,440A.17.17,0,0,1,95.17,440.11Z"/><polygon class="cls-17" points="84.07 463.29 84.08 463.41 83.82 463.41 84.07 463.29"/><polygon class="cls-17" points="84.08 463.29 84.07 463.29 84.07 463.28 84.08 463.29"/><polygon class="cls-17" points="83.03 461.39 83.29 461.86 82.77 461.86 83.03 461.39"/><polygon class="cls-17" points="84.07 463.29 84.08 463.41 83.82 463.41 84.07 463.29"/><polygon class="cls-17" points="84.08 463.29 84.07 463.29 84.07 463.28 84.08 463.29"/><polygon class="cls-17" points="83.03 461.39 83.29 461.86 82.77 461.86 83.03 461.39"/><polygon class="cls-17" points="84.08 463.29 84.07 463.29 84.07 463.28 84.08 463.29"/><polygon class="cls-17" points="83.03 461.39 83.29 461.86 82.77 461.86 83.03 461.39"/><polygon class="cls-17" points="84.08 463.41 83.82 463.41 84.07 463.29 84.08 463.41"/></g><path class="cls-5" d="M573.56,461.12a9.63,9.63,0,0,1,1.47,5.07c0,6.51-6.79,11.79-15.16,11.79s-15.16-5.28-15.16-11.79a9.67,9.67,0,0,1,1.46-5.05,8.79,8.79,0,0,1,3.61-15.29,10.53,10.53,0,1,1,20.62-3,10.23,10.23,0,0,1-.45,3.05,8.79,8.79,0,0,1,3.61,15.26Z"/><path class="cls-16" d="M567.51,463.66,561.24,478l.6,21.13H557.9l.57-21.13L551,460.14a.13.13,0,0,1,.24-.11l7.86,14.71.65-21.84c0-.21.25-.21.26,0l.79,22.57,6.57-11.91A.11.11,0,0,1,567.51,463.66Z"/><polygon class="cls-17" points="560.82 477.62 560.83 477.69 560.67 477.69 560.82 477.62"/><polygon class="cls-17" points="560.83 477.62 560.82 477.62 560.82 477.61 560.83 477.62"/><polygon class="cls-17" points="560.2 476.47 560.36 476.75 560.04 476.75 560.2 476.47"/><polygon class="cls-17" points="560.82 477.62 560.83 477.69 560.67 477.69 560.82 477.62"/><polygon class="cls-17" points="560.83 477.62 560.82 477.62 560.82 477.61 560.83 477.62"/><polygon class="cls-17" points="560.2 476.47 560.36 476.75 560.04 476.75 560.2 476.47"/><polygon class="cls-17" points="560.83 477.62 560.82 477.62 560.82 477.61 560.83 477.62"/><polygon class="cls-17" points="560.2 476.47 560.36 476.75 560.04 476.75 560.2 476.47"/><polygon class="cls-17" points="560.83 477.69 560.67 477.69 560.82 477.62 560.83 477.69"/><path class="cls-5" d="M182.44,462a14.16,14.16,0,0,1-28.31,0c0-7.82,6.33-40.12,14.15-40.12S182.44,454.22,182.44,462Z"/><path class="cls-16" d="M168.23,479l-.39-3.47,5.45-12.22a.16.16,0,0,1,.29.11Z"/><path class="cls-16" d="M167.58,474l.26-2.42-5.45-12.22a.15.15,0,0,0-.28.12Z"/><path class="cls-16" d="M168.23,467.63l-.21-1.86,4.18-9.35a.12.12,0,0,1,.22.09Z"/><path class="cls-16" d="M169.9,499h-3.23a.12.12,0,0,1-.12-.12l1.62-50.71a.12.12,0,0,1,.23,0L170,498.87A.11.11,0,0,1,169.9,499Z"/><g class="cls-3"><path class="cls-6" d="M48.53,459.13a15.27,15.27,0,0,1-30.54,0c0-8.44,6.84-43.28,15.27-43.28S48.53,450.69,48.53,459.13Z"/><path class="cls-16" d="M33.2,477.47l-.41-3.75,5.88-13.18a.17.17,0,0,1,.31.12Z"/><path class="cls-16" d="M32.5,472l.29-2.61-5.88-13.18a.17.17,0,0,0-.31.12Z"/><path class="cls-16" d="M33.21,465.16l-.23-2,4.51-10.09a.13.13,0,0,1,.24.09Z"/><path class="cls-16" d="M35,499H31.52a.13.13,0,0,1-.13-.13l1.75-54.7a.13.13,0,1,1,.25,0l1.74,54.7A.12.12,0,0,1,35,499Z"/></g><g class="cls-3"><path class="cls-6" d="M73.2,459.13a15.28,15.28,0,0,1-30.55,0c0-8.44,6.84-43.28,15.28-43.28S73.2,450.69,73.2,459.13Z"/><path class="cls-16" d="M57.87,477.47l-.42-3.75,5.88-13.18a.17.17,0,0,1,.31.12Z"/><path class="cls-16" d="M57.16,472l.29-2.61-5.88-13.18a.17.17,0,0,0-.31.12Z"/><path class="cls-16" d="M57.87,465.16l-.23-2,4.51-10.09a.13.13,0,0,1,.24.09Z"/><path class="cls-16" d="M59.67,499H56.18a.12.12,0,0,1-.12-.13l1.74-54.7a.13.13,0,1,1,.25,0l1.74,54.7A.12.12,0,0,1,59.67,499Z"/></g><path class="cls-5" d="M35.36,457a16.08,16.08,0,0,1-32.15,0c0-8.88,7.2-45.56,16.08-45.56S35.36,448.16,35.36,457Z"/><path class="cls-16" d="M19.22,476.34l-.43-3.95L25,458.52a.18.18,0,0,1,.33.13Z"/><path class="cls-16" d="M18.48,470.61l.31-2.75L12.6,454a.18.18,0,0,0-.33.12Z"/><path class="cls-16" d="M19.23,463.38l-.24-2.1,4.74-10.62a.13.13,0,0,1,.25.1Z"/><path class="cls-16" d="M21.12,499H17.45a.13.13,0,0,1-.13-.14l1.83-57.57a.14.14,0,0,1,.27,0l1.83,57.57A.12.12,0,0,1,21.12,499Z"/><path class="cls-11" d="M144.35,343.62c-3.15-.85-10.46-5.57-9.61-8.72s9.55-3.54,12.7-2.69,86.62,25.65,85.77,28.8S147.5,344.48,144.35,343.62Z"/><path class="cls-11" d="M125,343.62c3.16-.85,10.47-5.57,9.61-8.72s-9.54-3.54-12.69-2.69S35.28,357.86,36.13,361,121.84,344.48,125,343.62Z"/><path class="cls-11" d="M140.58,326.54c0,3.27-2.64,11.56-5.91,11.56s-5.91-8.29-5.91-11.56,2.15-90.31,5.41-90.31S140.58,323.28,140.58,326.54Z"/><polygon class="cls-11" points="140.76 500.64 127.97 500.64 130.73 338.1 138 338.1 140.76 500.64"/><circle class="cls-13" cx="134.36" cy="336.4" r="6.22"/><polygon class="cls-18" points="75.16 449.52 129.91 448.33 163.57 488.4 108.82 489.6 75.16 449.52"/><polygon class="cls-21" points="108.68 468.49 91.46 468.87 75.16 449.52 92.38 449.15 108.68 468.49"/><polygon class="cls-21" points="127.45 468.08 110.22 468.46 93.92 449.11 111.14 448.74 127.45 468.08"/><polygon class="cls-21" points="146.21 467.67 128.99 468.05 112.69 448.7 129.91 448.33 146.21 467.67"/><polygon class="cls-21" points="126.04 489.22 108.82 489.6 92.52 470.25 109.74 469.88 126.04 489.22"/><polygon class="cls-21" points="144.81 488.81 127.58 489.19 111.28 469.84 128.5 469.46 144.81 488.81"/><polygon class="cls-21" points="163.57 488.4 146.35 488.78 130.05 469.43 147.27 469.06 163.57 488.4"/><path class="cls-11" d="M242.47,355.37c-1.56-2.64-3.4-10.62-.75-12.18s8.75,3.88,10.32,6.52S293.59,423.84,291,425.4,244,358,242.47,355.37Z"/><path class="cls-11" d="M229.61,345.57c3,.84,11.14.57,12-2.38s-6-7.48-8.94-8.32-82.28-21.26-83.12-18.31S226.66,344.73,229.61,345.57Z"/><path class="cls-11" d="M250.34,337.61c-1,2.92-5.77,9.54-8.69,8.58s-2.84-9.14-1.87-12.06,28.51-80,31.43-79.09S251.3,334.7,250.34,337.61Z"/><polygon class="cls-11" points="247.38 499.09 235.34 499.09 237.94 346.19 244.78 346.19 247.38 499.09"/><circle class="cls-13" cx="241.36" cy="344.6" r="5.85"/><g class="cls-3"><path class="cls-5" d="M1002,451.17a12.22,12.22,0,0,1,1.88,6.47c0,8.31-8.66,15.05-19.35,15.05s-19.35-6.74-19.35-15.05a12.26,12.26,0,0,1,1.87-6.45,11.21,11.21,0,0,1,4.6-19.51,13.45,13.45,0,1,1,25.76,0,11.21,11.21,0,0,1,4.59,19.48Z"/><path class="cls-16" d="M994.25,454.41l-8,18.28.77,27h-5l.72-27-9.59-22.77a.17.17,0,0,1,.3-.14l10,18.77.83-27.87c0-.27.31-.27.33,0l1,28.81,8.38-15.2A.13.13,0,0,1,994.25,454.41Z"/><polygon class="cls-17" points="985.72 472.23 985.73 472.32 985.52 472.32 985.72 472.23"/><polygon class="cls-17" points="985.73 472.23 985.72 472.23 985.72 472.22 985.73 472.23"/><polygon class="cls-17" points="984.92 470.77 985.12 471.13 984.72 471.13 984.92 470.77"/><polygon class="cls-17" points="985.72 472.23 985.73 472.32 985.52 472.32 985.72 472.23"/><polygon class="cls-17" points="985.73 472.23 985.72 472.23 985.72 472.22 985.73 472.23"/><polygon class="cls-17" points="984.92 470.77 985.12 471.13 984.72 471.13 984.92 470.77"/><polygon class="cls-17" points="985.73 472.23 985.72 472.23 985.72 472.22 985.73 472.23"/><polygon class="cls-17" points="984.92 470.77 985.12 471.13 984.72 471.13 984.92 470.77"/><polygon class="cls-17" points="985.73 472.32 985.52 472.32 985.72 472.23 985.73 472.32"/></g><g class="cls-9"><rect class="cls-14" x="842.25" y="300.96" width="83.92" height="197.73"/><rect class="cls-11" x="849.07" y="371.34" width="7.95" height="11.68"/><rect class="cls-11" x="863.41" y="371.34" width="7.95" height="11.68"/><rect class="cls-11" x="863.41" y="411.85" width="7.95" height="11.68"/><rect class="cls-11" x="863.41" y="432.1" width="7.95" height="11.68"/><rect class="cls-11" x="849.07" y="391.59" width="7.95" height="11.68"/><rect class="cls-11" x="849.07" y="411.85" width="7.95" height="11.68"/><rect class="cls-11" x="849.07" y="432.1" width="7.95" height="11.68"/><rect class="cls-11" x="882.57" y="432.1" width="7.95" height="11.68"/><rect class="cls-11" x="882.57" y="391.59" width="7.95" height="11.68"/><rect class="cls-11" x="896.9" y="391.59" width="7.95" height="11.68"/><rect class="cls-11" x="849.07" y="351.09" width="7.95" height="11.68"/><rect class="cls-11" x="882.57" y="351.09" width="7.95" height="11.68"/><rect class="cls-11" x="896.9" y="351.09" width="7.95" height="11.68"/><rect class="cls-11" x="911.39" y="351.09" width="7.95" height="11.68"/><rect class="cls-11" x="911.39" y="391.59" width="7.95" height="11.68"/><rect class="cls-11" x="911.39" y="432.1" width="7.95" height="11.68"/><rect class="cls-11" x="911.39" y="472.6" width="7.95" height="11.68"/><rect class="cls-11" x="849.07" y="472.6" width="7.95" height="11.68"/><rect class="cls-11" x="882.57" y="472.6" width="7.95" height="11.68"/><rect class="cls-11" x="896.9" y="472.6" width="7.95" height="11.68"/><rect class="cls-11" x="896.9" y="411.85" width="7.95" height="11.68"/><rect class="cls-11" x="863.41" y="452.35" width="7.95" height="11.68"/><rect class="cls-11" x="849.07" y="452.35" width="7.95" height="11.68"/><rect class="cls-11" x="896.9" y="452.35" width="7.95" height="11.68"/><rect class="cls-11" x="896.9" y="371.34" width="7.95" height="11.68"/><rect class="cls-11" x="849.07" y="328.34" width="7.95" height="11.68"/><rect class="cls-11" x="863.41" y="328.34" width="7.95" height="11.68"/><rect class="cls-11" x="896.9" y="328.34" width="7.95" height="11.68"/><rect class="cls-14" x="852.55" y="277.02" width="63.3" height="23.94"/><rect class="cls-14" x="864.55" y="260.52" width="39.31" height="16.5"/><rect class="cls-14" x="884.2" y="218.59" width="1.17" height="41.93"/></g><path class="cls-6" d="M952.71,461.57a9.65,9.65,0,0,1,1.3,5.12c-.21,6.5-7.17,11.56-15.54,11.28s-15-5.77-14.75-12.28a9.58,9.58,0,0,1,1.62-5,8.79,8.79,0,0,1,4.11-15.16,10.54,10.54,0,1,1,20.71-2.36,10.22,10.22,0,0,1-.55,3,8.77,8.77,0,0,1,3.1,15.36Z"/><path class="cls-16" d="M946.58,463.91,939.84,478l-.09,21.14-3.94-.13,1.26-21.11-6.92-18.07a.13.13,0,0,1,.24-.1l7.37,15,1.38-21.81c0-.2.25-.2.25,0l.05,22.58,7-11.68C946.46,463.69,946.64,463.79,946.58,463.91Z"/><polygon class="cls-17" points="939.44 477.64 939.44 477.71 939.28 477.71 939.44 477.64"/><polygon class="cls-17" points="939.45 477.64 939.44 477.64 939.44 477.64 939.45 477.64"/><polygon class="cls-17" points="938.85 476.48 939 476.76 938.69 476.75 938.85 476.48"/><polygon class="cls-17" points="939.44 477.64 939.44 477.71 939.28 477.71 939.44 477.64"/><polygon class="cls-17" points="939.45 477.64 939.44 477.64 939.44 477.64 939.45 477.64"/><polygon class="cls-17" points="938.85 476.48 939 476.76 938.69 476.75 938.85 476.48"/><polygon class="cls-17" points="939.45 477.64 939.44 477.64 939.44 477.64 939.45 477.64"/><polygon class="cls-17" points="938.85 476.48 939 476.76 938.69 476.75 938.85 476.48"/><polygon class="cls-17" points="939.44 477.71 939.28 477.71 939.44 477.64 939.44 477.71"/><path class="cls-14" d="M1076.34,468.82v30.42h-4.5c0-.53.06-1.07.06-1.61,0-9.45-5.86-15.26-13.09-15.26s-13.08,5.81-13.08,15.26c0,.54,0,1.08.06,1.61h-4.71c0-.53.06-1.07.06-1.61,0-9.45-5.86-15.26-13.09-15.26S1015,488.18,1015,497.63c0,.54,0,1.08,0,1.61h-4.71c0-.53.06-1.07.06-1.61,0-9.45-5.86-15.26-13.08-15.26s-13.08,5.81-13.08,15.26c0,.54,0,1.08,0,1.61h-4.49V468.82h1.5v1.93h2.66v-1.93h2.38v1.93H989v-1.93h2.4v1.93H994v-1.93h2.38v1.93h2.66v-1.93h2.4v1.93h2.66v-1.93h2.39v1.93h2.65v-1.93h2.4v1.93h2.66v-1.93h2.38v1.93h2.66v-1.93h2.4v1.93h2.66v-1.93h2.39v1.93h2.65v-1.93h2.4v1.93h2.66v-1.93h2.38v1.93h2.67v-1.93h2.39v1.93h2.66v-1.93h2.39v1.93h2.65v-1.93h2.4v1.93h2.66v-1.93H1057v1.93h2.66v-1.93h2.39v1.93h2.66v-1.93h2.39v1.93h2.65v-1.93h2.4v1.93h2.66v-1.93Z"/><path class="cls-22" d="M1076.34,499.24h-4.5c0-.53.06-1.07.06-1.61,0-9.44-5.86-15.26-13.08-15.26s-13.09,5.82-13.09,15.26c0,.54,0,1.08.06,1.61h-4.71c0-.53.06-1.07.06-1.61,0-9.44-5.86-15.26-13.09-15.26S1015,488.19,1015,497.63c0,.54,0,1.08.06,1.61h-4.71c0-.53.06-1.07.06-1.61,0-9.44-5.86-15.26-13.08-15.26s-13.09,5.82-13.09,15.26c0,.54,0,1.08.06,1.61h-4.49"/><polygon class="cls-19" points="1076.34 468.82 1076.34 474.07 979.78 474.07 979.78 468.82 981.28 468.82 981.28 470.75 983.94 470.75 983.94 468.82 986.32 468.82 986.32 470.75 988.98 470.75 988.98 468.82 991.38 468.82 991.38 470.75 994.04 470.75 994.04 468.82 996.42 468.82 996.42 470.75 999.08 470.75 999.08 468.82 1001.48 468.82 1001.48 470.75 1004.14 470.75 1004.14 468.82 1006.53 468.82 1006.53 470.75 1009.18 470.75 1009.18 468.82 1011.58 468.82 1011.58 470.75 1014.24 470.75 1014.24 468.82 1016.62 468.82 1016.62 470.75 1019.28 470.75 1019.28 468.82 1021.68 468.82 1021.68 470.75 1024.34 470.75 1024.34 468.82 1026.73 468.82 1026.73 470.75 1029.38 470.75 1029.38 468.82 1031.78 468.82 1031.78 470.75 1034.44 470.75 1034.44 468.82 1036.82 468.82 1036.82 470.75 1039.49 470.75 1039.49 468.82 1041.88 468.82 1041.88 470.75 1044.54 470.75 1044.54 468.82 1046.93 468.82 1046.93 470.75 1049.58 470.75 1049.58 468.82 1051.98 468.82 1051.98 470.75 1054.64 470.75 1054.64 468.82 1057.03 468.82 1057.03 470.75 1059.69 470.75 1059.69 468.82 1062.08 468.82 1062.08 470.75 1064.74 470.75 1064.74 468.82 1067.13 468.82 1067.13 470.75 1069.78 470.75 1069.78 468.82 1072.18 468.82 1072.18 470.75 1074.84 470.75 1074.84 468.82 1076.34 468.82"/><path class="cls-6" d="M856.72,468.47a7.78,7.78,0,0,1,1.06,4.16c-.17,5.29-5.83,9.4-12.64,9.18s-12.18-4.7-12-10a7.78,7.78,0,0,1,1.32-4.07,7.15,7.15,0,0,1,3.34-12.33,8.47,8.47,0,0,1-.28-2.48,8.57,8.57,0,1,1,17.13.56,8.44,8.44,0,0,1-.45,2.47,7.14,7.14,0,0,1,2.52,12.5Z"/><path class="cls-16" d="M851.73,470.37l-5.48,11.48L846.18,499l-3.2-.1,1-17.17-5.63-14.7a.11.11,0,0,1,.2-.09l6,12.17,1.12-17.73c0-.17.2-.16.21,0l0,18.37,5.66-9.5A.09.09,0,0,1,851.73,470.37Z"/><polygon class="cls-17" points="845.93 481.54 845.93 481.6 845.8 481.6 845.93 481.54"/><polygon class="cls-17" points="845.93 481.54 845.93 481.54 845.93 481.54 845.93 481.54"/><polygon class="cls-17" points="845.45 480.59 845.57 480.83 845.31 480.82 845.45 480.59"/><polygon class="cls-17" points="845.93 481.54 845.93 481.6 845.8 481.6 845.93 481.54"/><polygon class="cls-17" points="845.93 481.54 845.93 481.54 845.93 481.54 845.93 481.54"/><polygon class="cls-17" points="845.45 480.59 845.57 480.83 845.31 480.82 845.45 480.59"/><polygon class="cls-17" points="845.93 481.54 845.93 481.54 845.93 481.54 845.93 481.54"/><polygon class="cls-17" points="845.45 480.59 845.57 480.83 845.31 480.82 845.45 480.59"/><polygon class="cls-17" points="845.93 481.6 845.8 481.6 845.93 481.54 845.93 481.6"/><path class="cls-19" d="M655.55,479.1,658,467.67c.26-1.28,1.76-2.23,3.53-2.23h21a4,4,0,0,1,3,1.22l12,12.44"/><path class="cls-6" d="M707.47,493.43a2.66,2.66,0,0,1-2.53,1.91H658.09a2.67,2.67,0,0,1-2.54-1.91,2.76,2.76,0,0,1-.12-.82l.12-13.51h44.09a8.09,8.09,0,0,1,7.67,7.76l.28,5.62A2.56,2.56,0,0,1,707.47,493.43Z"/><circle class="cls-19" cx="664.55" cy="493.43" r="5.79"/><path class="cls-11" d="M659.2,477.92l2-9.27a2.8,2.8,0,0,1,2.91-1.81h17.34a3.38,3.38,0,0,1,2.5,1l9.92,10.09"/><rect class="cls-19" x="673.21" y="466.84" width="1.2" height="11.07"/><path class="cls-15" d="M655.55,479.1h44.09a8.09,8.09,0,0,1,7.67,7.76l.28,5.62a2.56,2.56,0,0,1-.12,1,2.66,2.66,0,0,1-2.53,1.91"/><circle class="cls-19" cx="697.97" cy="493.43" r="5.79"/><path class="cls-19" d="M707.47,493.43a2.66,2.66,0,0,1-2.53,1.91H658.09a2.67,2.67,0,0,1-2.54-1.91Z"/><path class="cls-6" d="M656.61,475.64a9.25,9.25,0,0,1-18.49,0c0-5.11,4.14-26.21,9.24-26.21S656.61,470.53,656.61,475.64Z"/><path class="cls-16" d="M647.33,486.74l-.25-2.27,3.56-8a.1.1,0,0,1,.18.07Z"/><path class="cls-16" d="M646.9,483.44l.18-1.58-3.56-8a.1.1,0,0,0-.19.08Z"/><path class="cls-16" d="M647.33,479.29l-.14-1.21,2.73-6.11c0-.09.18,0,.15,0Z"/><path class="cls-16" d="M648.42,499.77h-2.11a.08.08,0,0,1-.08-.08l1.06-33.12a.07.07,0,1,1,.15,0l1.06,33.12A.08.08,0,0,1,648.42,499.77Z"/><path class="cls-6" d="M553.26,475.64a9.25,9.25,0,0,1-18.49,0c0-5.11,4.14-26.21,9.24-26.21S553.26,470.53,553.26,475.64Z"/><path class="cls-16" d="M544,486.74l-.25-2.27,3.56-8a.1.1,0,0,1,.18.07Z"/><path class="cls-16" d="M543.55,483.44l.18-1.58-3.56-8a.1.1,0,0,0-.19.08Z"/><path class="cls-16" d="M544,479.29l-.14-1.21,2.73-6.11c0-.09.18,0,.15,0Z"/><path class="cls-16" d="M545.07,499.77H543a.08.08,0,0,1-.08-.08l1.06-33.12a.08.08,0,0,1,.15,0l1.06,33.12A.08.08,0,0,1,545.07,499.77Z"/><rect class="cls-19" y="498.91" width="1920" height="5.85"/></g></g></svg>