<svg xmlns="http://www.w3.org/2000/svg" xmlns:xlink="http://www.w3.org/1999/xlink" viewBox="0 0 166.34 103.61"><defs><style>.cls-1{fill:#33425b;}.cls-2{fill:url(#linear-gradient);}.cls-3{fill:#009adc;}.cls-4{fill:#158bca;}.cls-5{fill:#15caaf;}</style><linearGradient id="linear-gradient" x1="30.54" y1="87.99" x2="61.34" y2="87.99" gradientUnits="userSpaceOnUse"><stop offset="0" stop-color="#95e06c"/><stop offset="0.13" stop-color="#74da7d"/><stop offset="0.3" stop-color="#52d48f"/><stop offset="0.47" stop-color="#37d09d"/><stop offset="0.64" stop-color="#24cda7"/><stop offset="0.81" stop-color="#19cbad"/><stop offset="1" stop-color="#15caaf"/></linearGradient></defs><title>party-1</title><g id="Layer_2" data-name="Layer 2"><g id="Layer_1-2" data-name="Layer 1"><polygon class="cls-1" points="14.91 103.61 22.95 90.36 30.99 77.11 15.49 76.77 0 76.44 7.46 90.03 14.91 103.61"/><polygon class="cls-2" points="48.95 102.2 55.15 87.99 61.34 73.78 45.94 75.52 30.54 77.26 39.75 89.73 48.95 102.2"/><polygon class="cls-3" points="83.44 94.37 86.56 79.19 89.69 64.01 74.98 68.89 60.27 73.78 71.85 84.08 83.44 94.37"/><polygon class="cls-1" points="116.3 78.84 115.69 63.36 115.09 47.87 101.98 56.13 88.87 64.4 102.58 71.62 116.3 78.84"/><polygon class="cls-4" points="144.48 55.9 140.18 41 135.89 26.11 125.14 37.28 114.39 48.44 129.43 52.17 144.48 55.9"/><polygon class="cls-5" points="166.34 26.86 158.6 13.43 150.86 0 143.1 13.42 135.34 26.84 150.84 26.85 166.34 26.86"/></g></g></svg>