<svg xmlns="http://www.w3.org/2000/svg" xmlns:xlink="http://www.w3.org/1999/xlink" viewBox="0 0 117.18 60.62"><defs><style>.cls-1{fill:#33425b;}.cls-2{fill:url(#linear-gradient);}.cls-3{fill:#009adc;}.cls-4{fill:#158bca;}.cls-5{fill:#15caaf;}</style><linearGradient id="linear-gradient" x1="302.34" y1="20.22" x2="323.65" y2="20.22" gradientTransform="translate(-184.2 -207.5) rotate(45)" gradientUnits="userSpaceOnUse"><stop offset="0" stop-color="#95e06c"/><stop offset="0.13" stop-color="#74da7d"/><stop offset="0.3" stop-color="#52d48f"/><stop offset="0.47" stop-color="#37d09d"/><stop offset="0.64" stop-color="#24cda7"/><stop offset="0.81" stop-color="#19cbad"/><stop offset="1" stop-color="#15caaf"/></linearGradient></defs><title>party-2</title><g id="Layer_2" data-name="Layer 2"><g id="Layer_1-2" data-name="Layer 1"><polygon class="cls-1" points="0 20.59 10.42 18.04 20.83 15.49 13.41 7.74 6 0 3 10.29 0 20.59"/><polygon class="cls-2" points="17.34 36.55 27.32 32.63 37.3 28.71 28.92 22.02 20.54 15.34 18.94 25.94 17.34 36.55"/><polygon class="cls-3" points="38.04 49.59 46.99 43.69 55.95 37.79 46.37 32.99 36.78 28.18 37.41 38.88 38.04 49.59"/><polygon class="cls-1" points="61.71 58.06 68.99 50.19 76.27 42.32 65.81 39.95 55.36 37.58 58.53 47.82 61.71 58.06"/><polygon class="cls-4" points="86.72 60.63 91.9 51.24 97.09 41.85 86.37 42.05 75.65 42.26 81.18 51.44 86.72 60.63"/><polygon class="cls-5" points="111.62 57.11 114.4 46.76 117.18 36.4 106.82 39.17 96.46 41.94 104.04 49.53 111.62 57.11"/></g></g></svg>