<svg xmlns="http://www.w3.org/2000/svg" xmlns:xlink="http://www.w3.org/1999/xlink" viewBox="0 0 429.46 254.94"><defs><style>.cls-1{fill:url(#linear-gradient);}.cls-2,.cls-6{fill:#fff;}.cls-3{fill:#33425b;}.cls-4{fill:#c0e0de;}.cls-5{fill:#15caaf;}.cls-6{opacity:0.2;}</style><linearGradient id="linear-gradient" x1="138.99" y1="-6.43" x2="168.1" y2="252.26" gradientTransform="matrix(1.25, -0.42, 0.32, 0.95, -26.61, 77.92)" gradientUnits="userSpaceOnUse"><stop offset="0" stop-color="#95e06c"/><stop offset="0.13" stop-color="#74da7d"/><stop offset="0.3" stop-color="#52d48f"/><stop offset="0.47" stop-color="#37d09d"/><stop offset="0.64" stop-color="#24cda7"/><stop offset="0.81" stop-color="#19cbad"/><stop offset="1" stop-color="#15caaf"/></linearGradient></defs><title>welcome-3</title><g id="Layer_2" data-name="Layer 2"><g id="Layer_1-2" data-name="Layer 1"><path class="cls-1" d="M121.17,24.6c-103.9,36.66-94.41,68-94.41,68,3.87,30.3,37.54,12,24,56.76s71.64,136.55,208.86,66.55c46.92-23.94,99.6-44.76,106.61-83.26,7.5-41.23-10.39-49.79-27.41-54.82C286.94,62.5,313.26-43.19,121.17,24.6Z"/><path class="cls-2" d="M345.22,148.13a1.23,1.23,0,0,0-1.57,0,3.83,3.83,0,0,0-1.18,1.44c-.52,1-1,2-1.53,3a64.81,64.81,0,0,1-5.35,9.05,16.35,16.35,0,0,1-9.6,6.49,4.63,4.63,0,0,1-5-1.8,13.18,13.18,0,0,1-2.67-6.33,40.46,40.46,0,0,1,.18-11.42c0-.29.08-.63.51-.74a5.47,5.47,0,0,1,.66.25,6.45,6.45,0,0,0,8.59-2.76,17.6,17.6,0,0,0,1.78-13.62,5.24,5.24,0,0,0-6.59-3.76,9.68,9.68,0,0,0-4.52,2.58,23.13,23.13,0,0,0-4.36,5.85,37.85,37.85,0,0,0-4.09,12.83,34.15,34.15,0,0,1-2.08,8,77.34,77.34,0,0,1-4,9.32,12,12,0,0,1-3,3.82c-.83.65-1.17.56-1.47-.43a13.74,13.74,0,0,1-.24-5.78,135.72,135.72,0,0,1,3-14.91,73.87,73.87,0,0,0,2.36-14.25,17.45,17.45,0,0,0-1.41-8.07A8.29,8.29,0,0,0,300.5,123a3.88,3.88,0,0,0-5.42.66,19.78,19.78,0,0,0-1.78,2.19A86.8,86.8,0,0,0,286,138.53c-.21.42-.2,1.12-1.08,1.19a64.64,64.64,0,0,0-.06-10,25,25,0,0,0-2-8,8.05,8.05,0,0,0-2.56-3.43c-1.95-1.41-3.72-1.25-5.32.56a26,26,0,0,0-3.59,5.49,77.38,77.38,0,0,0-6.79,19.06c-.1.47,0,1-.67,1.44,0-.34-.08-.52-.08-.71,0-1.88,0-3.76,0-5.64,0-1.31,0-2.63-.05-3.94-.13-2.18-1.28-3.37-3.5-3.72-1.86-.3-2.93.42-3.77,2.59a16.78,16.78,0,0,0-1.06,4.94,2.79,2.79,0,0,1-1.23,2.2,35.89,35.89,0,0,1-6.65,3.86c-2.07.92-2.06.91-2.69-1.28a17.25,17.25,0,0,0-2.65-5.78c-1.05-1.38-2.35-2.3-4.2-1.65a2.27,2.27,0,0,1-1.44-.12,7.19,7.19,0,0,0-8.78,3.59,12.45,12.45,0,0,0-1.63,5.35,24.76,24.76,0,0,1-2,7.77c-.85,2.09-1.67,4.2-2.53,6.28a24,24,0,0,1-2.55,4.6,14,14,0,0,1-4.81,4.4c-2.46,1.3-3.91.93-5.37-1.43a14.64,14.64,0,0,1-1.92-5.85,55.78,55.78,0,0,1,1.19-20.71,22.05,22.05,0,0,1,2.48-6.06,6.66,6.66,0,0,1,2.08-2.39,2,2,0,0,1,3.16.74,5.71,5.71,0,0,1,.63,4.35c-.13.55-.06,1,.59,1.17s.75-.34.94-.72a5.67,5.67,0,0,0-4.25-8.15,7.39,7.39,0,0,0-5.66,1.48,20.68,20.68,0,0,0-6.35,8,37.32,37.32,0,0,0-3.23,15.7,30.6,30.6,0,0,1-4.07,14.69,11.5,11.5,0,0,1-3.47,3.9c-1.28.89-1.76.81-2.64-.43a14.13,14.13,0,0,1-2.05-5A67.24,67.24,0,0,1,184.8,155a195.3,195.3,0,0,1,.39-24.79,240.73,240.73,0,0,1,7.92-46.62c.46-1.68.47-1.68,2.28-1.73a40.38,40.38,0,0,0,13-2.5c11.24-4.12,15.25-15.4,14.35-23.78a13.27,13.27,0,0,0-3.84-8.37,9.26,9.26,0,0,0-11.25-1.58,17.58,17.58,0,0,0-5.12,4.36,64.37,64.37,0,0,0-7.18,11,147.27,147.27,0,0,0-7.85,17.88c-.52,1.4-.54,1.42-2,1.2a87.83,87.83,0,0,1-14.76-3.61,154.07,154.07,0,0,1-22.15-9.8c-6.74-3.47-13.45-7-20.7-9.35-11.77-3.84-23.74-5.09-35.94-2.43A52.13,52.13,0,0,0,65.26,69.32a22.12,22.12,0,0,0-4.92,7.26,5.79,5.79,0,0,0-.48,1.8c0,.71.58.93,1.14,1s.7-.36.7-.85a8.67,8.67,0,0,1,1.84-4.65,28.77,28.77,0,0,1,5.62-6.29c10.46-8.92,22.66-13.12,36.31-13.13A72.94,72.94,0,0,1,135,61c5.86,2.57,11.44,5.68,17.15,8.56,10.56,5.32,21.46,9.67,33.22,11.56,1.19.19,1.21.28.84,1.51-.1.36-.23.71-.35,1.07a194.71,194.71,0,0,0-10,58.3,28.08,28.08,0,0,1-2,10.05q-1,2.43-2.1,4.82a22.37,22.37,0,0,1-3.64,5.45,11.94,11.94,0,0,1-3.19,2.6c-1.55.81-2.51.61-3.62-.76a9.32,9.32,0,0,1-1.83-4.08,60.27,60.27,0,0,1-1.37-12.12c0-.41-.13-.89.34-1.19.56.05,1.12.14,1.68.15a6.06,6.06,0,0,0,6-3.4,16.12,16.12,0,0,0,.57-13.83c-1.78-4.24-5.78-5.29-9.58-2.69a15.06,15.06,0,0,0-5.4,6.83,30.78,30.78,0,0,0-2,8.18,36,36,0,0,0,1.71,17,14.7,14.7,0,0,0,5.05,7.1c4.55,3.32,9.69,2.87,13.54-1.21a21.8,21.8,0,0,0,2-2.49,30,30,0,0,0,3.19-6.16c.16-.4.16-1,.87-1.12.07.57.13,1.06.18,1.55a45.66,45.66,0,0,0,1.46,7.94,20.44,20.44,0,0,0,4.32,8.26c3.72,4.09,10,4.72,14-.55a23.29,23.29,0,0,0,3.56-7.41,3.11,3.11,0,0,1,.71-1.67c.67,1.09,1.19,2.09,1.84,3,4.17,5.82,11.36,6.62,16.7,1.88a19,19,0,0,0,4.43-6c1-2.09,1.76-4.29,2.57-6.46a2.19,2.19,0,0,1,.67-1.22,5.08,5.08,0,0,1,.63,1.66,11.86,11.86,0,0,0,3.35,5.35,8.27,8.27,0,0,0,12.71-1.75,14.88,14.88,0,0,0,1.83-4.3,23.37,23.37,0,0,0,.76-7.45c0-.66,0-1.18.82-1.43a30.24,30.24,0,0,0,7.5-3.85c.3-.2.59-.5,1.1-.2a50.34,50.34,0,0,0,.38,7.43,21.25,21.25,0,0,0,2.87,8.28,5.33,5.33,0,0,0,2.58,2.38c2.44.95,4.1,0,4.38-2.59s.49-5.36.72-8a64.48,64.48,0,0,1,4.74-20,34.9,34.9,0,0,1,4.72-8.32c.57-.71,1.07-1.55,2.11-1.79a4.58,4.58,0,0,1,.52,2.74,89.48,89.48,0,0,1-.62,12.57,70.86,70.86,0,0,0-.19,15.2,31.5,31.5,0,0,0,1,5.54,2.71,2.71,0,0,0,3.17,2c1.14-.13,1.42-.46,1.67-2.28,1.25-9.17,4.75-17.48,9.59-25.29a22.55,22.55,0,0,1,3.51-4.4,2.37,2.37,0,0,1,1.86-1,19.84,19.84,0,0,1,.14,6.7c-.41,3.43-1.21,6.79-1.93,10.16a87.88,87.88,0,0,0-2.06,22.58,13.26,13.26,0,0,0,1.53,6.14,4.89,4.89,0,0,0,7.82,1.32,12.26,12.26,0,0,0,2.59-3.43,63.53,63.53,0,0,0,3.09-7.26c.22-.56.26-1.23,1-1.7.21.69.41,1.32.61,1.94,3.09,9.59,13.5,13.19,21.85,7.58a20.83,20.83,0,0,0,6.55-7.38,104,104,0,0,0,5.82-12.2C345.27,148.92,345.66,148.51,345.22,148.13Zm-26-3.85a37.77,37.77,0,0,1,3.15-9.78,10.72,10.72,0,0,1,2.52-3.47c1.41-1.2,2.11-1,2.75.69a16.55,16.55,0,0,1,.82,5,17,17,0,0,1-1.52,7,6.61,6.61,0,0,1-2.75,3,4.36,4.36,0,0,1-2.9.49C319.43,147,318.83,146.11,319.2,144.28Zm-125-64.7c2.22-7.56,4.54-15.09,8.16-22.14A36.82,36.82,0,0,1,206.51,51a13.54,13.54,0,0,1,4.35-3.79A5.52,5.52,0,0,1,218,48.4a12.34,12.34,0,0,1,3.3,8.76c-.1,8.62-3.45,15.55-11.24,19.82a33.33,33.33,0,0,1-15,3.71,2.12,2.12,0,0,1-.56,0,1.61,1.61,0,0,1-.33-.15A1.32,1.32,0,0,1,194.23,79.58Zm-36,64a38.16,38.16,0,0,1,3.05-13.27c.38-.83.65-2.07,1.63-2.11s1.53,1.14,2,2a9.42,9.42,0,0,1,1.24,5,15.7,15.7,0,0,1-1.57,7.26,4.88,4.88,0,0,1-4.59,3C158.51,145.5,158.13,145.08,158.23,143.58Zm80.65-5.52c.12-.35.22-.78.62-.87s.67.27.89.57a14.57,14.57,0,0,1,2.63,7.38C239.86,144.77,238.05,140.51,238.88,138.06ZM241.06,157a8.48,8.48,0,0,1-2.38,2.87c-1.85,1.38-2.85,1.15-3.79-.92a9,9,0,0,1-.7-2.13,33,33,0,0,1,.41-14.34,5,5,0,0,1,1.55-2.88c.38.24.26.66.34,1a7.47,7.47,0,0,0,5.44,5.89,1.58,1.58,0,0,1,1.33,1.86A19.14,19.14,0,0,1,241.06,157Z"/><path class="cls-2" d="M152.08,124.81a36.4,36.4,0,0,0,9.93-6,5.15,5.15,0,0,0,1.52-1.62c-1-.56-1.51.14-2.05.6a38.29,38.29,0,0,1-8.87,5.6c-.6.28-1.17.75-1.91.6-.35-.39-.23-.84-.23-1.26a97.93,97.93,0,0,0-.74-10.69,66.21,66.21,0,0,0-5.21-19.53,50.7,50.7,0,0,0-9-14,18.14,18.14,0,0,0-7.38-5,10.94,10.94,0,0,0-11.92,2.79A22.87,22.87,0,0,0,110,88.06a37.25,37.25,0,0,0-.41,13.64c1.12,7.46,3.71,14.33,8.68,20.1,5.82,6.76,13,9.49,21.88,7.11,2.48-.67,4.94-1.38,7.37-2.22,1-.35,1.26-.18,1.25.88,0,1.38-.09,2.76-.19,4.13a118,118,0,0,1-5.66,27.55,50.77,50.77,0,0,1-3.94,9.53,16.74,16.74,0,0,1-1.58,2.33c-2.18,2.63-3.89,2.67-6.2.2a17.32,17.32,0,0,1-2.38-3.38c-1.43-2.57-2.72-5.22-3.93-7.9a185.64,185.64,0,0,1-8.48-23.1,41.07,41.07,0,0,0-2.47-6.49,13.7,13.7,0,0,0-4.86-5.62,6.94,6.94,0,0,0-4.45-1.21c-1.62.17-2.21.77-2.25,2.4a25.92,25.92,0,0,0,.2,4.13,140.79,140.79,0,0,1,1.27,19.68,42.28,42.28,0,0,1-1.09,9.5,11.26,11.26,0,0,1-2.19,4.74,2.24,2.24,0,0,1-3.15.73,12,12,0,0,1-3.35-2.39A40.59,40.59,0,0,1,88.79,156c-5.55-8.1-9.24-17-12-26.41-1-3.43-2-6.86-3-10.28a8.33,8.33,0,0,0-1.11-2.58,2.31,2.31,0,0,0-2.48-1c-1,.18-1.27.9-1.45,1.75a11.57,11.57,0,0,0-.22,3c.6,13.52,4.39,26,12.2,37.15a30.59,30.59,0,0,0,5.75,6.17,19.54,19.54,0,0,0,8.1,4.2c5,1.12,9-1.12,10.57-6a19.09,19.09,0,0,0,.59-2.37,40.15,40.15,0,0,0,.59-7.67c-.06-5.45-.56-10.88-1.14-16.3a15.72,15.72,0,0,1-.14-4.61,1.81,1.81,0,0,1,.7,1.23c.76,2.71,1.52,5.42,2.26,8.14a95.84,95.84,0,0,0,10.51,24.85,24.64,24.64,0,0,0,8.9,9c5.38,3,10.56,1.57,13.6-3.79a31.65,31.65,0,0,0,2.39-5.51,126,126,0,0,0,7-37.71A2.34,2.34,0,0,1,152.08,124.81Zm-4.9.81a57.37,57.37,0,0,1-10.86,2.95,15.8,15.8,0,0,1-10.14-1.94,25.1,25.1,0,0,1-9.54-9.88,41,41,0,0,1-5.47-20.28,32.28,32.28,0,0,1,2.48-13.2,20.22,20.22,0,0,1,3.44-5.35c4.24-4.73,9.31-5.19,14.34-1.33a32.65,32.65,0,0,1,7.33,8.26,59.39,59.39,0,0,1,8.88,23.36,97.5,97.5,0,0,1,1.21,15C148.87,125,148.86,125,147.18,125.62Z"/><path class="cls-3" d="M429.46,153.65V154a1.1,1.1,0,0,1-1.1,1.1h-6.31v6.32a1.1,1.1,0,0,1-1.1,1.09h-.37a1.09,1.09,0,0,1-1.1-1.09v-6.32h-6.31a1.1,1.1,0,0,1-1.1-1.1v-.37a1.09,1.09,0,0,1,1.1-1.09h6.31v-6.32a1.1,1.1,0,0,1,1.1-1.1H421a1.11,1.11,0,0,1,1.1,1.1v6.32h6.31A1.09,1.09,0,0,1,429.46,153.65Z"/><rect class="cls-4" x="60.52" y="31.17" width="0.5" height="0.5"/><path class="cls-4" d="M59,29.6v.5h.5v-.5Zm1.56,1.57v.5H61v-.5ZM61,29.1v.5h.5v-.5Z"/><rect class="cls-4" x="7.41" y="111.37" width="0.5" height="0.5"/><path class="cls-4" d="M7.41,111.37v.5h.5v-.5ZM9,112.94v.5h.5v-.5Zm.5-2.07v.5H10v-.5Z"/><path class="cls-4" d="M16.29,110.87H10v.5h-.5v-.5H10v-6.31a1.1,1.1,0,0,0-1.1-1.1H8.5a1.09,1.09,0,0,0-1.09,1.1v6.31H1.09A1.09,1.09,0,0,0,0,112v.37a1.1,1.1,0,0,0,1.09,1.1H7.41v6.31a1.09,1.09,0,0,0,1.09,1.1h.37a1.1,1.1,0,0,0,1.1-1.1v-6.31h6.32a1.1,1.1,0,0,0,1.09-1.1V112A1.09,1.09,0,0,0,16.29,110.87Zm-8.38,1h-.5v-.5h.5Zm1.56,1.57H9v-.5h.5Z"/><path class="cls-5" d="M283,236.87a1,1,0,0,1-.22.63c-2.31,2.89-4.2,3.76-6.5,3a6,6,0,0,1-2.64-2.32c-1.33-1.71-2.25-2.71-4.51-1.89-.72.26-.92.69-1.28,1.57a4.53,4.53,0,0,1-3.39,3.14c-2.81.69-4.17-1.37-5.16-2.88-.8-1.21-1.34-2-2.14-2-2.4-.18-2.69.53-3.77,3.15l-.08.2a1,1,0,0,1-1.86-.77l.08-.19c1.08-2.62,1.93-4.69,5.78-4.4,1.85.13,2.82,1.61,3.68,2.91,1.11,1.69,1.69,2.35,3,2s1.6-1,2-1.95a4.11,4.11,0,0,1,2.46-2.7c3.76-1.36,5.51.91,6.79,2.56a4.68,4.68,0,0,0,1.69,1.64c1,.33,2.09.41,4.29-2.34a1,1,0,0,1,1.79.63Z"/><path class="cls-4" d="M387.14,100.74a1,1,0,0,1-.21.59c-2.18,2.72-3.95,3.54-6.12,2.82a5.73,5.73,0,0,1-2.5-2.19c-1.24-1.61-2.12-2.56-4.25-1.78-.67.24-.86.65-1.2,1.48a4.23,4.23,0,0,1-3.19,3c-2.65.66-3.93-1.29-4.86-2.7-.76-1.15-1.27-1.85-2-1.9-2.26-.17-2.54.5-3.56,3l-.07.18a1,1,0,1,1-1.76-.72l.08-.18c1-2.47,1.82-4.42,5.45-4.15,1.74.13,2.65,1.52,3.46,2.75,1.05,1.59,1.6,2.21,2.83,1.91s1.5-.92,1.88-1.84a3.85,3.85,0,0,1,2.32-2.54c3.54-1.28,5.19.85,6.4,2.41.54.7,1.05,1.37,1.59,1.55.94.31,2,.38,4-2.21a.95.95,0,0,1,1.69.6Z"/><path class="cls-3" d="M110.84,225.1a.94.94,0,0,1,.59.22c2.69,2.22,3.48,4,2.72,6.16a5.72,5.72,0,0,1-2.22,2.46c-1.64,1.22-2.6,2.08-1.86,4.22.23.68.64.88,1.46,1.23a4.27,4.27,0,0,1,2.91,3.24c.6,2.66-1.36,3.91-2.79,4.82-1.16.73-1.86,1.23-1.93,2-.21,2.25.46,2.54,2.92,3.6l.17.08a.93.93,0,0,1,.5,1.24,1,1,0,0,1-1.25.5l-.18-.08c-2.45-1.06-4.38-1.89-4-5.51.15-1.74,1.56-2.64,2.8-3.42,1.61-1,2.24-1.57,2-2.8s-.9-1.52-1.81-1.91a3.86,3.86,0,0,1-2.51-2.36c-1.22-3.56.94-5.18,2.52-6.36a4.39,4.39,0,0,0,1.57-1.57c.33-.94.41-2-2.14-4.07a.95.95,0,0,1,.62-1.68Z"/><path class="cls-6" d="M267.93,140.3c0-35.84-19.72-71.66-36.27-95.4C221.09,29.72,202.55,7.5,194,1.54a3.84,3.84,0,0,0-.8-.81,4.64,4.64,0,0,0-.82-.44A2.87,2.87,0,0,0,191.13,0h-.44a4.87,4.87,0,0,0-.55.06,1.66,1.66,0,0,0-.22,0,3.38,3.38,0,0,0-.42.13l-.06,0-.13,0-.13,0-.26.15a3.38,3.38,0,0,0-.41.24l0,0-.16.15-.2.17,0,0-.05,0h0a330.68,330.68,0,0,0-36.84,43.75C126.51,79.76,114,111.86,114,140.3c0,74.67,38.43,108.19,76.64,108.38h.39C229.33,248.64,267.93,215.12,267.93,140.3Zm-67.59,48.41c-.15,2.17-.3,4.34-.47,6.53,0,.15,0,.31,0,.46q-.35,4.29-.78,8.61l-.09.88c-1.66,15.68-3.78,25.19-5.6,30.46-.28.74-.56,1.49-.88,2.21a18.3,18.3,0,0,1-1.12,2.22l-.51.31-.11-.07c-3.37-4.6-10.52-29-10.52-100,0-44.46,7-90.5,11.22-115.86,4.3,24.84,10.28,70.65,10.28,115.86C201.72,159.76,201.19,175.7,200.34,188.71ZM172.49,140.3c0,31.86,1.49,58.77,4.32,77.81.81,5.4,1.68,10,2.64,13.91-12.62-11.32-21.2-27-25.58-47-11.17-50.76,8.09-121.42,30-162.32C179.63,48.23,172.49,95,172.49,140.3Zm30.28,91.27c2.09-8,2.95-16.35,3.72-24l.25-2.45c0-.17,0-.35,0-.53.23-2.33.45-4.73.65-7.22.1-1.12.18-2.23.27-3.34,0-.46.06-.92.1-1.38,1.42-19.28,1.65-37.73,1.65-52.32,0-37.85-4.27-75-6.81-93.71-1.11-8.18-2.1-14.89-3-20.44,21,40.61,39.43,107.77,28.18,158.92C223.51,204.71,215.11,220.29,202.77,231.57Zm-81-91.27c0-40.21,27.86-82.24,48.84-108.19C151,74.54,135.52,137.69,146.31,186.73c4.91,22.28,14.76,39.76,29.33,52.23C142.85,230.16,121.75,192.72,121.75,140.3Zm84.19,98.77c14.64-12.47,24.53-30,29.45-52.34,11.07-50.32-5.56-115.5-25.83-157.9,21.05,25.22,50.64,69,50.64,111.47C260.2,192.92,238.94,230.45,205.94,239.07Z"/><path class="cls-4" d="M367.27,196.6c-3.55,3.28-8.6,5.44-13.76,3.32-1.36-.56-1.09-7.91,4.37-12,7.09-5.28,13.45-2.31,15.92-2.08A26.64,26.64,0,0,1,367.27,196.6Z"/><path class="cls-2" d="M351.31,202l-.24-.24,4.32-4.44a34.7,34.7,0,0,1,14.91-10.29l.09.33a34.32,34.32,0,0,0-14.75,10.19Z"/><polygon class="cls-2" points="362.3 191.2 365.86 185.98 366.14 186.17 362.91 190.91 367.87 191.37 367.84 191.71 362.3 191.2"/><polygon class="cls-2" points="357.44 195.26 359.51 189.52 359.83 189.64 357.92 194.91 364.71 194.77 364.72 195.11 357.44 195.26"/><polygon class="cls-2" points="354.23 198.78 354.92 193.33 355.26 193.37 354.62 198.39 358.68 197.94 358.72 198.28 354.23 198.78"/><path class="cls-4" d="M362.7,209.66c-3.31-.44-6.68-2.16-7.83-5.83-.3-1,3.72-4.07,8.29-3,5.92,1.44,7.15,6.12,8.12,7.53A18.43,18.43,0,0,1,362.7,209.66Z"/><path class="cls-2" d="M352.79,203.59v-.23l4.26.33a23.94,23.94,0,0,1,12,3.37l-.13.2a23.81,23.81,0,0,0-11.91-3.34Z"/><polygon class="cls-2" points="363.37 204.65 367.71 204.23 367.73 204.47 363.79 204.84 365.74 207.68 365.54 207.81 363.37 204.65"/><polygon class="cls-2" points="359.08 203.85 363.03 202.43 363.11 202.65 359.48 203.96 362.54 207.5 362.36 207.65 359.08 203.85"/><polygon class="cls-2" points="355.8 203.7 358.99 201.67 359.12 201.87 356.18 203.74 358.2 205.7 358.04 205.87 355.8 203.7"/><circle class="cls-5" cx="343.62" cy="199.64" r="4.34"/><circle class="cls-5" cx="338.53" cy="203.2" r="4.34"/><circle class="cls-5" cx="340.14" cy="209.2" r="4.34"/><circle class="cls-5" cx="346.33" cy="209.74" r="4.34"/><circle class="cls-5" cx="348.95" cy="204.11" r="4.34"/><circle class="cls-2" cx="343.62" cy="205.05" r="2.71"/></g></g></svg>