<?xml version="1.0" encoding="UTF-8"?>
<svg width="50px" height="50px" viewBox="0 0 50 50" version="1.1" xmlns="http://www.w3.org/2000/svg" xmlns:xlink="http://www.w3.org/1999/xlink">
    <!-- Generator: Sketch 53 (72520) - https://sketchapp.com -->
    <title>tag-black-shape</title>
    <desc>Created with Sketch.</desc>
    <g id="Page-1" stroke="none" stroke-width="1" fill="none" fill-rule="evenodd">
        <g id="Get-Started" transform="translate(-1318.000000, -726.000000)" fill="#FFFFFF" fill-rule="nonzero">
            <g id="Group-16" transform="translate(1293.000000, 701.000000)">
                <g id="tag-black-shape" transform="translate(25.000000, 25.000000)">
                    <path d="M48.7796504,26.5675862 L25.1820641,3.00327828 C24.3457253,2.16660039 23.2238637,1.45730839 21.8157858,0.87447751 C20.4072456,0.291531035 19.120197,0 17.9539465,0 L4.22446479,0 C3.08017756,0 2.09009571,0.418338944 1.25398807,1.25397647 C0.417880427,2.09007639 0,3.08014907 0,4.22442572 L0,17.9537804 C0,19.1199046 0.291186942,20.4065945 0.87437,21.8151217 C1.45755306,23.2236489 2.16696722,24.3341718 3.00330605,25.1485398 L26.6005456,48.7788526 C27.41469,49.5929894 28.4040782,50 29.5710223,50 C30.7142692,50 31.7162575,49.5929894 32.5742128,48.7788526 L48.7791881,32.5411981 C49.5933324,31.7267145 50,30.737451 50,29.5712113 C50,28.4270502 49.5933324,27.4258804 48.7796504,26.5675862 Z M13.54788,13.5478703 C12.7222916,14.3729886 11.7270079,14.785779 10.5607574,14.785779 C9.39496925,14.785779 8.39922319,14.3729886 7.57409719,13.5478703 C6.74897119,12.7226363 6.33652379,11.7273618 6.33652379,10.5612377 C6.33652379,9.39499797 6.74897119,8.39937671 7.57409719,7.57460513 C8.39933879,6.74937116 9.39496925,6.33658079 10.5607574,6.33658079 C11.7270079,6.33658079 12.7226384,6.74937116 13.54788,7.57460513 C14.3726592,8.39937671 14.7854534,9.39511356 14.7854534,10.5612377 C14.7854534,11.7273618 14.3731216,12.7226363 13.54788,13.5478703 Z" id="Shape"></path>
                </g>
            </g>
        </g>
    </g>
</svg>