<?xml version="1.0" encoding="UTF-8"?>
<svg width="31px" height="28px" viewBox="0 0 31 28" version="1.1" xmlns="http://www.w3.org/2000/svg" xmlns:xlink="http://www.w3.org/1999/xlink">
    <!-- Generator: Sketch 53 (72520) - https://sketchapp.com -->
    <title>business</title>
    <desc>Created with Sketch.</desc>
    <defs>
        <polygon id="path-1" points="0.5604 0.8 28.3874 0.8 28.3874 15.3058 0.5604 15.3058"></polygon>
    </defs>
    <g id="Page-1" stroke="none" stroke-width="1" fill="none" fill-rule="evenodd">
        <g id="Onboarding-Company-Account" transform="translate(-955.000000, -170.000000)">
            <g id="onboarding-steps" transform="translate(702.000000, 144.000000)">
                <g id="step-2" transform="translate(228.000000, 0.000000)">
                    <g id="business" transform="translate(25.000000, 25.000000)">
                        <polygon id="Fill-1" fill="#FEFEFE" points="12.754 17.319 18.193 17.319 18.193 15.506 12.754 15.506"></polygon>
                        <g id="Group-7" transform="translate(0.000000, 0.200000)">
                            <path d="M25.1074,17.1197 L20.0064,17.1197 L20.0064,18.0267 C20.0064,18.5277 19.6014,18.9327 19.1004,18.9327 L11.8474,18.9327 C11.3464,18.9327 10.9404,18.5277 10.9404,18.0267 L10.9404,17.1197 L5.8404,17.1197 C4.6684,17.1197 3.6314,16.3727 3.2604,15.2607 L0.0004,5.4787 L0.0004,25.2797 C0.0004,26.7797 1.2204,27.9997 2.7204,27.9997 L28.2274,27.9997 C29.7274,27.9997 30.9474,26.7797 30.9474,25.2797 L30.9474,5.4797 L27.6874,15.2607 C27.3164,16.3727 26.2794,17.1197 25.1074,17.1197" id="Fill-2" fill="#FEFEFE"></path>
                            <g id="Group-6" transform="translate(1.000000, 0.000000)">
                                <mask id="mask-2" fill="white">
                                    <use xlink:href="#path-1"></use>
                                </mask>
                                <g id="Clip-5"></g>
                                <path d="M9.9404,4.4268 L9.9404,3.5198 C9.9404,3.0198 10.3474,2.6138 10.8474,2.6138 L18.1004,2.6138 C18.6004,2.6138 19.0064,3.0198 19.0064,3.5198 L19.0064,4.4268 L9.9404,4.4268 Z M18.1004,0.7998 L10.8474,0.7998 C9.3474,0.7998 8.1274,2.0198 8.1274,3.5198 L8.1274,4.4268 L0.5604,4.4268 L3.9794,14.6868 C4.1034,15.0578 4.4494,15.3058 4.8404,15.3058 L9.9404,15.3058 L9.9404,14.3998 C9.9404,13.8988 10.3464,13.4928 10.8474,13.4928 L18.1004,13.4928 C18.6014,13.4928 19.0064,13.8988 19.0064,14.3998 L19.0064,15.3058 L24.1074,15.3058 C24.4984,15.3058 24.8434,15.0578 24.9674,14.6868 L28.3874,4.4268 L20.8204,4.4268 L20.8204,3.5198 C20.8204,2.0198 19.5994,0.7998 18.1004,0.7998 L18.1004,0.7998 Z" id="Fill-4" fill="#FEFEFE" mask="url(#mask-2)"></path>
                            </g>
                        </g>
                    </g>
                </g>
            </g>
        </g>
    </g>
</svg>