<?xml version="1.0" encoding="UTF-8"?>
<svg width="60px" height="50px" viewBox="0 0 60 50" version="1.1" xmlns="http://www.w3.org/2000/svg" xmlns:xlink="http://www.w3.org/1999/xlink">
    <!-- Generator: Sketch 53 (72520) - https://sketchapp.com -->
    <title>casual-t-shirt-</title>
    <desc>Created with Sketch.</desc>
    <g id="Page-1" stroke="none" stroke-width="1" fill="none" fill-rule="evenodd">
        <g id="Get-Started" transform="translate(-549.000000, -726.000000)" fill="#FFFFFF" fill-rule="nonzero">
            <g id="Group-13" transform="translate(529.000000, 701.000000)">
                <g id="casual-t-shirt-" transform="translate(20.000000, 25.000000)">
                    <path d="M29.9997844,4 C32.7597111,4 35.1436272,2.3812782 36,0 C34.3661648,0.4137042 32.2836609,0.663394318 29.9997844,0.663394318 C27.7161235,0.663394318 25.6336196,0.4137042 24,0 C24.8559416,2.38107988 27.2396421,4 29.9997844,4 Z" id="Path"></path>
                    <path d="M59.925267,7.70556271 C59.8018263,7.37376841 59.5449966,7.10090359 59.2104073,6.95231575 L47.7712317,1.89371691 C45.3379477,1.10410095 42.8589825,0.480382127 40.3558571,0.0245053231 C40.2677432,0.00797395434 40.1800353,0 40.0935456,0 C39.4739058,0 38.9190318,0.409783459 38.7809732,1.01074733 C37.8669436,4.86547356 34.304827,7.75146157 29.9998329,7.75146157 C25.6950419,7.75146157 22.1327222,4.86566804 21.2188957,1.01074733 C21.0792128,0.409783459 20.5253539,0 19.9061202,0 C19.8196305,0 19.7319226,0.00797395434 19.6438087,0.0245053231 C17.1408863,0.480382127 14.6619211,1.10410095 12.2247796,1.89371691 L0.789664518,6.95212127 C0.453045005,7.1007091 0.194388033,7.37357393 0.0768351393,7.70536822 C-0.0447783035,8.04105225 -0.0228513389,8.40338096 0.148503829,8.72000529 L5.11455527,18.1082669 C5.3470217,18.5538359 5.81987263,18.8212551 6.32013227,18.8212551 C6.44925773,18.8212551 6.58021043,18.8033623 6.70933589,18.7662153 L12.2249826,17.2002085 L12.2249826,48.7012179 C12.2249826,49.4165399 12.834268,50 13.5830333,50 L46.4172416,50 C47.1639766,50 47.7714347,49.4163454 47.7714347,48.7012179 L47.7714347,17.2005975 L53.290939,18.7666043 C53.4200644,18.8037513 53.5508141,18.821644 53.6797366,18.821644 C54.1789811,18.821644 54.6500047,18.5542248 54.8857196,18.1086558 L59.8535983,8.72039426 C60.0208929,8.40357544 60.0448502,8.04124674 59.925267,7.70556271 Z" id="Path"></path>
                </g>
            </g>
        </g>
    </g>
</svg>