<?xml version="1.0" encoding="UTF-8"?>
<svg width="61px" height="45px" viewBox="0 0 61 45" version="1.1" xmlns="http://www.w3.org/2000/svg" xmlns:xlink="http://www.w3.org/1999/xlink">
    <!-- Generator: Sketch 53 (72520) - https://sketchapp.com -->
    <title>Group 9</title>
    <desc>Created with Sketch.</desc>
    <g id="Page-1" stroke="none" stroke-width="1" fill="none" fill-rule="evenodd">
        <g id="Get-Started" transform="translate(-1057.000000, -729.000000)">
            <g id="Group-15" transform="translate(1038.000000, 701.000000)">
                <g id="Group-9" transform="translate(19.000000, 28.000000)">
                    <g id="Group-3" transform="translate(42.500000, 13.333333)" fill="#FFFFFF">
                        <path d="M12.1051667,9.22608333 C12.1051667,11.7135833 10.0885,13.7310833 7.601,13.7310833 C5.11183333,13.7310833 3.09516667,11.7135833 3.09516667,9.22608333 C3.09516667,6.73775 5.11183333,4.72108333 7.601,4.72108333 C10.0876667,4.72358333 12.1026667,6.73941667 12.1051667,9.22608333 M0.532666667,9.24941667 C0.540166667,14.05025 4.436,17.93775 9.23683333,17.93525 L18.0518333,17.9352512 L18.0518333,0.563582128 L9.23683333,0.563583333 C4.436,0.561083333 0.540166667,4.44858333 0.532666667,9.24941667" id="Fill-1"></path>
                    </g>
                    <path d="M50.1009044,19.559 C51.7571009,19.559 53.1003333,20.9022324 53.1003333,22.5595711 C53.1003333,24.2157676 51.7571009,25.559 50.1009044,25.559 C48.4435658,25.559 47.1003333,24.2157676 47.1003333,22.5595711 C47.1003333,20.9022324 48.4435658,19.559 50.1009044,19.559" id="Fill-4" fill="#33425B"></path>
                    <g id="Group-8" fill="#FFFFFF">
                        <path d="M51.9005,33.5845 L60.5513333,33.5845 L60.5513333,42.5186667 C60.5513333,43.8895 59.4405,45.0003333 58.0696667,45.0003333 L2.48133333,45.0003333 C1.11133333,45.0003333 -0.000333333333,43.8895 -0.000333333333,42.5186667 L-0.000333333333,2.482 C-0.000333333333,1.11116667 1.11133333,0.000333333333 2.48133333,0.000333333333 L58.0696667,0.000333333333 C59.4405,0.000333333333 60.5513333,1.11116667 60.5513333,2.482 L60.5513333,11.5811667 L51.7363333,11.5811667 C45.6121667,11.5811667 40.6563333,16.5845 40.7355,22.7278333 C40.8138333,28.7736667 45.8538333,33.5845 51.9005,33.5845 Z" id="Fill-6"></path>
                    </g>
                </g>
            </g>
        </g>
    </g>
</svg>