<?xml version="1.0" encoding="UTF-8"?>
<svg width="35px" height="13px" viewBox="0 0 35 13" version="1.1" xmlns="http://www.w3.org/2000/svg" xmlns:xlink="http://www.w3.org/1999/xlink">
    <!-- Generator: Sketch 53 (72520) - https://sketchapp.com -->
    <title>Abc</title>
    <desc>Created with Sketch.</desc>
    <g id="Page-1" stroke="none" stroke-width="1" fill="none" fill-rule="evenodd">
        <g id="Add-New-Product" transform="translate(-1104.000000, -1395.000000)" fill="#575756" fill-rule="nonzero">
            <path d="M1114.888,1407 L1113.768,1404.408 L1108.168,1404.408 L1107.064,1407 L1104.92,1407 L1109.96,1395.8 L1112.008,1395.8 L1117.064,1407 L1114.888,1407 Z M1108.872,1402.776 L1113.08,1402.776 L1110.968,1397.88 L1108.872,1402.776 Z M1123.69867,1398.36 C1126.19467,1398.36 1128.03467,1400.072 1128.03467,1402.728 C1128.03467,1405.384 1126.19467,1407.112 1123.69867,1407.112 C1122.53067,1407.112 1121.53867,1406.712 1120.86667,1405.896 L1120.86667,1407 L1118.96267,1407 L1118.96267,1395.128 L1120.96267,1395.128 L1120.96267,1399.496 C1121.65067,1398.728 1122.61067,1398.36 1123.69867,1398.36 Z M1123.47467,1405.4 C1124.91467,1405.4 1126.00267,1404.36 1126.00267,1402.728 C1126.00267,1401.096 1124.91467,1400.056 1123.47467,1400.056 C1122.03467,1400.056 1120.93067,1401.096 1120.93067,1402.728 C1120.93067,1404.36 1122.03467,1405.4 1123.47467,1405.4 Z M1134.52533,1407.112 C1131.82133,1407.112 1129.90133,1405.288 1129.90133,1402.728 C1129.90133,1400.168 1131.82133,1398.36 1134.52533,1398.36 C1136.18933,1398.36 1137.51733,1399.048 1138.17333,1400.344 L1136.63733,1401.24 C1136.12533,1400.424 1135.35733,1400.056 1134.50933,1400.056 C1133.03733,1400.056 1131.91733,1401.08 1131.91733,1402.728 C1131.91733,1404.392 1133.03733,1405.4 1134.50933,1405.4 C1135.35733,1405.4 1136.12533,1405.032 1136.63733,1404.216 L1138.17333,1405.112 C1137.51733,1406.392 1136.18933,1407.112 1134.52533,1407.112 Z" id="Abc"></path>
        </g>
    </g>
</svg>