<?xml version="1.0" encoding="UTF-8"?>
<svg width="12px" height="12px" viewBox="0 0 12 12" version="1.1" xmlns="http://www.w3.org/2000/svg" xmlns:xlink="http://www.w3.org/1999/xlink">
    <!-- Generator: Sketch 53 (72520) - https://sketchapp.com -->
    <title>B</title>
    <desc>Created with Sketch.</desc>
    <g id="Page-1" stroke="none" stroke-width="1" fill="none" fill-rule="evenodd">
        <g id="Add-New-Product" transform="translate(-1163.000000, -1395.000000)" fill="#575756" fill-rule="nonzero">
            <path d="M1172.336,1400.795 C1173.679,1401.271 1174.512,1402.291 1174.512,1403.736 C1174.512,1405.793 1172.812,1407 1169.616,1407 L1163.19,1407 L1163.19,1395.1 L1169.276,1395.1 C1172.404,1395.1 1173.934,1396.375 1173.934,1398.211 C1173.934,1399.35 1173.356,1400.268 1172.336,1400.795 Z M1168.834,1397.531 L1166.522,1397.531 L1166.522,1399.826 L1168.834,1399.826 C1169.956,1399.826 1170.534,1399.435 1170.534,1398.67 C1170.534,1397.922 1169.956,1397.531 1168.834,1397.531 Z M1169.344,1404.569 C1170.5,1404.569 1171.112,1404.178 1171.112,1403.362 C1171.112,1402.546 1170.5,1402.155 1169.344,1402.155 L1166.522,1402.155 L1166.522,1404.569 L1169.344,1404.569 Z" id="B"></path>
        </g>
    </g>
</svg>