<?xml version="1.0" encoding="UTF-8"?>
<svg width="22px" height="12px" viewBox="0 0 22 12" version="1.1" xmlns="http://www.w3.org/2000/svg" xmlns:xlink="http://www.w3.org/1999/xlink">
    <!-- Generator: Sketch 53 (72520) - https://sketchapp.com -->
    <title>H2</title>
    <desc>Created with Sketch.</desc>
    <g id="Page-1" stroke="none" stroke-width="1" fill="none" fill-rule="evenodd">
        <g id="Add-New-Product" transform="translate(-1060.000000, -1395.000000)" fill="#575756" fill-rule="nonzero">
            <path d="M1068.376,1395.8 L1070.456,1395.8 L1070.456,1407 L1068.376,1407 L1068.376,1402.2 L1062.584,1402.2 L1062.584,1407 L1060.504,1407 L1060.504,1395.8 L1062.584,1395.8 L1062.584,1400.424 L1068.376,1400.424 L1068.376,1395.8 Z M1076.16267,1405.24 L1081.44267,1405.24 L1081.44267,1407 L1073.18667,1407 L1073.18667,1405.608 L1077.63467,1401.384 C1078.72267,1400.344 1078.91467,1399.688 1078.91467,1399.064 C1078.91467,1398.04 1078.21067,1397.448 1076.83467,1397.448 C1075.74667,1397.448 1074.83467,1397.816 1074.21067,1398.616 L1072.75467,1397.496 C1073.61867,1396.328 1075.17067,1395.64 1077.01067,1395.64 C1079.44267,1395.64 1081.01067,1396.872 1081.01067,1398.856 C1081.01067,1399.944 1080.70667,1400.936 1079.15467,1402.392 L1076.16267,1405.24 Z" id="H2"></path>
        </g>
    </g>
</svg>