<?xml version="1.0" encoding="UTF-8"?>
<svg width="27px" height="13px" viewBox="0 0 27 13" version="1.1" xmlns="http://www.w3.org/2000/svg" xmlns:xlink="http://www.w3.org/1999/xlink">
    <!-- Generator: Sketch 53 (72520) - https://sketchapp.com -->
    <title>hyperlink</title>
    <desc>Created with Sketch.</desc>
    <defs>
        <polygon id="path-1" points="0 0.0082875 17.6071909 0.0082875 17.6071909 13 0 13"></polygon>
        <polygon id="path-3" points="0.329481818 0.008125 17.937 0.008125 17.937 12.9999187 0.329481818 12.9999187"></polygon>
    </defs>
    <g id="Page-1" stroke="none" stroke-width="1" fill="none" fill-rule="evenodd">
        <g id="Onboarding-Add-New-Brand-Filled" transform="translate(-1196.000000, -689.000000)">
            <g id="hyperlink" transform="translate(1196.000000, 689.000000)">
                <g id="Group-3" transform="translate(-0.000000, 0.000000)">
                    <mask id="mask-2" fill="white">
                        <use xlink:href="#path-1"></use>
                    </mask>
                    <g id="Clip-2"></g>
                    <path d="M17.6071909,6.5001625 C17.6071909,7.7676625 17.2480091,8.9539125 16.6090091,9.9532875 C16.4781,10.1645375 16.3308273,10.3676625 16.1753727,10.5626625 C16.0035545,10.7657875 15.8235545,10.9689125 15.6353727,11.1476625 C15.2508273,11.5295375 14.8171909,11.8545375 14.3426455,12.1226625 C14.0971909,12.2689125 13.8435545,12.3907875 13.5817364,12.4964125 C13.3117364,12.6101625 13.0417364,12.7076625 12.7553727,12.7807875 C12.2153727,12.9270375 11.6508273,13.0001625 11.0617364,13.0001625 L6.54537273,13.0001625 C4.73800909,13.0001625 3.10164545,12.2689125 1.91446364,11.0989125 C0.7281,9.9207875 -8.18181818e-05,8.2957875 -8.18181818e-05,6.5001625 C-8.18181818e-05,2.9170375 2.92982727,0.0082875 6.54537273,0.0082875 L11.0617364,0.0082875 C11.6508273,0.0082875 12.2153727,0.0814125 12.7553727,0.2276625 C11.7408273,0.7557875 10.8817364,1.5276625 10.2271909,2.4457875 L6.54537273,2.4457875 C4.28719091,2.4457875 2.45446364,4.2657875 2.45446364,6.5001625 C2.45446364,8.7426625 4.28719091,10.5626625 6.54537273,10.5626625 L11.0617364,10.5626625 C11.2990091,10.5626625 11.5362818,10.5382875 11.7653727,10.4976625 C12.2317364,10.4245375 12.6653727,10.2620375 13.0581,10.0426625 C13.2462818,9.9451625 13.4181,9.8314125 13.5817364,9.6932875 C13.7535545,9.5714125 13.9090091,9.4251625 14.0481,9.2707875 C14.7353727,8.5476625 15.1526455,7.5726625 15.1526455,6.5001625 C15.1526455,5.4276625 14.7353727,4.4607875 14.0399182,3.7376625 C14.6126455,3.3070375 15.3326455,3.0551625 16.1017364,3.0551625 L16.6090091,3.0551625 C17.2480091,4.0545375 17.6071909,5.2326625 17.6071909,6.5001625" id="Fill-1" fill="#575756" mask="url(#mask-2)"></path>
                </g>
                <g id="Group-6" transform="translate(9.000000, 0.000000)">
                    <mask id="mask-4" fill="white">
                        <use xlink:href="#path-3"></use>
                    </mask>
                    <g id="Clip-5"></g>
                    <path d="M0.329481818,6.50804375 C0.329481818,5.24054375 0.689481818,4.05429375 1.32848182,3.05491875 C1.45939091,2.84366875 1.60666364,2.64054375 1.7613,2.44554375 C1.93393636,2.24241875 2.11393636,2.03929375 2.3013,1.86054375 C2.68666364,1.47866875 3.11948182,1.15366875 3.59402727,0.88554375 C3.83948182,0.73929375 4.09393636,0.61741875 4.35575455,0.51179375 C4.62493636,0.39804375 4.89493636,0.30054375 5.18211818,0.22741875 C5.72211818,0.08116875 6.28584545,0.00804375 6.87493636,0.00804375 L11.3921182,0.00804375 C13.1994818,0.00804375 14.8358455,0.73929375 16.0230273,1.90929375 C17.2093909,3.08741875 17.9375727,4.71241875 17.9375727,6.50804375 C17.9375727,10.0911688 15.0076636,12.9999188 11.3921182,12.9999188 L6.87493636,12.9999188 C6.28584545,12.9999188 5.72211818,12.9267938 5.18211818,12.7805437 C6.19666364,12.2524188 7.05575455,11.4805438 7.7103,10.5624188 L11.3921182,10.5624188 C13.6494818,10.5624188 15.4830273,8.74241875 15.4830273,6.50804375 C15.4830273,4.26554375 13.6494818,2.44554375 11.3921182,2.44554375 L6.87493636,2.44554375 C6.63848182,2.44554375 6.40120909,2.46991875 6.17211818,2.51054375 C5.70493636,2.58366875 5.2713,2.74616875 4.87939091,2.96554375 C4.69039091,3.06304375 4.51857273,3.17679375 4.35575455,3.31491875 C4.18393636,3.43679375 4.02848182,3.58304375 3.88939091,3.73741875 C3.20211818,4.46054375 2.78402727,5.43554375 2.78402727,6.50804375 C2.78402727,7.58054375 3.20211818,8.54741875 3.89675455,9.27054375 C3.32402727,9.70116875 2.60402727,9.95304375 1.83575455,9.95304375 L1.32848182,9.95304375 C0.689481818,8.95366875 0.329481818,7.77554375 0.329481818,6.50804375" id="Fill-4" fill="#575756" mask="url(#mask-4)"></path>
                </g>
            </g>
        </g>
    </g>
</svg>