<?xml version="1.0" encoding="UTF-8"?>
<svg width="16px" height="16px" viewBox="0 0 16 16" version="1.1" xmlns="http://www.w3.org/2000/svg" xmlns:xlink="http://www.w3.org/1999/xlink">
    <!-- Generator: Sketch 53 (72520) - https://sketchapp.com -->
    <title>quote</title>
    <desc>Created with Sketch.</desc>
    <defs>
        <polygon id="path-1" points="0 9.09494702e-13 16 9.09494702e-13 16 16 0 16"></polygon>
    </defs>
    <g id="Page-1" stroke="none" stroke-width="1" fill="none" fill-rule="evenodd">
        <g id="Onboarding-Add-New-Brand-Filled" transform="translate(-1309.000000, -689.000000)">
            <g id="Group-5" transform="translate(1067.000000, 685.000000)">
                <g id="quote" transform="translate(242.000000, 4.000000)">
                    <mask id="mask-2" fill="white">
                        <use xlink:href="#path-1"></use>
                    </mask>
                    <g id="Clip-2"></g>
                    <path d="M11.5445176,6.70307239 C11.5445176,7.8704333 11.2087421,8.74070236 10.5520924,9.28086936 C10.0961132,9.65098379 9.51993046,9.84504379 8.84043214,9.84504379 L8.84043214,8.19353319 C9.20799702,8.19353319 9.89643611,8.19353319 9.89643611,6.70307239 L9.89643611,6.13089549 L8.47187384,6.13089549 L8.47187384,3.03693893 L11.5445176,3.03693893 L11.5445176,6.70307239 Z M7.52812616,6.70307239 C7.52812616,7.8704333 7.19235068,8.74070236 6.53570098,9.28086936 C6.08071526,9.65098379 5.50353905,9.84504379 4.82404073,9.84504379 L4.82404073,8.19353319 C5.19160561,8.19353319 5.8800447,8.19353319 5.8800447,6.70307239 L5.8800447,6.13089549 L4.45647585,6.13089549 L4.45647585,3.03693893 L7.52812616,3.03693893 L7.52812616,6.70307239 Z M14.4005961,9.09494702e-13 L1.59940395,9.09494702e-13 C0.712281137,9.09494702e-13 0,0.717221743 0,1.61149823 L0,11.278487 C0,12.164761 0.712281137,12.8899852 1.59940395,12.8899852 L2.55209239,12.8899852 L2.55209239,15.5398044 C2.55209239,15.9349266 3.00807153,16.1439912 3.30411027,15.8869118 L6.74431889,12.8899852 L14.4005961,12.8899852 C15.2807649,12.8899852 16,12.164761 16,11.278487 L16,1.61149823 C16,0.717221743 15.2807649,9.09494702e-13 14.4005961,9.09494702e-13 L14.4005961,9.09494702e-13 Z" id="Fill-1" fill="#575756" mask="url(#mask-2)"></path>
                </g>
            </g>
        </g>
    </g>
</svg>