<?xml version="1.0" encoding="UTF-8"?>
<svg width="16px" height="20px" viewBox="0 0 16 20" version="1.1" xmlns="http://www.w3.org/2000/svg" xmlns:xlink="http://www.w3.org/1999/xlink">
    <!-- Generator: Sketch 53 (72520) - https://sketchapp.com -->
    <title>trash-bin</title>
    <desc>Created with Sketch.</desc>
    <g id="Page-1" stroke="none" stroke-width="1" fill="none" fill-rule="evenodd">
        <g id="--Onboarding-Users-ADD-NEW-USER" transform="translate(-1244.000000, -884.000000)" fill="#158BCA" fill-rule="nonzero">
            <g id="users" transform="translate(518.000000, 871.000000)">
                <g id="rory" transform="translate(67.000000, 0.000000)">
                    <g id="Group-4" transform="translate(618.000000, 12.000000)">
                        <g id="trash-bin" transform="translate(41.000000, 1.000000)">
                            <path d="M6,0 L5,1 L1,1 C0.448,1 0,1.448 0,2 C0,2.552 0.448,3 1,3 L15,3 C15.552,3 16,2.552 16,2 C16,1.448 15.552,1 15,1 L11,1 L10,0 L6,0 Z M1,5 L1,18 C1,19.1 1.9,20 3,20 L13,20 C14.1,20 15,19.1 15,18 L15,5 L1,5 Z M5,7 C5.552,7 6,7.448 6,8 L6,17 C6,17.552 5.552,18 5,18 C4.448,18 4,17.552 4,17 L4,8 C4,7.448 4.448,7 5,7 Z M11,7 C11.552,7 12,7.448 12,8 L12,17 C12,17.552 11.552,18 11,18 C10.448,18 10,17.552 10,17 L10,8 C10,7.448 10.448,7 11,7 Z" id="Shape"></path>
                        </g>
                    </g>
                </g>
            </g>
        </g>
    </g>
</svg>