<?xml version="1.0" encoding="UTF-8"?>
<svg width="20px" height="20px" viewBox="0 0 20 20" version="1.1" xmlns="http://www.w3.org/2000/svg" xmlns:xlink="http://www.w3.org/1999/xlink">
    <!-- Generator: Sketch 53 (72520) - https://sketchapp.com -->
    <title>Group 3</title>
    <desc>Created with Sketch.</desc>
    <defs>
        <polygon id="path-1" points="0 0 20 0 20 20 0 20"></polygon>
    </defs>
    <g id="Page-1" stroke="none" stroke-width="1" fill="none" fill-rule="evenodd">
        <g id="--Onboarding-Users-ADD-NEW-USER" transform="translate(-1203.000000, -883.000000)">
            <g id="users" transform="translate(518.000000, 871.000000)">
                <g id="rory" transform="translate(67.000000, 0.000000)">
                    <g id="Group-4" transform="translate(618.000000, 12.000000)">
                        <g id="Group-3">
                            <mask id="mask-2" fill="white">
                                <use xlink:href="#path-1"></use>
                            </mask>
                            <g id="Clip-2"></g>
                            <path d="M1.56838971,17.0227082 L2.97701586,18.4330724 L1.04953568,18.9502059 L1.56838971,17.0227082 Z M18.7647563,1.23482349 C19.2516941,1.72004054 19.2516941,2.51191477 18.7647563,2.99713183 C18.6215647,3.14032477 18.4986442,3.26497164 18.3925443,3.36934722 L16.6302521,1.60703888 C16.8308066,1.4064825 17.0024641,1.23482349 17.0024641,1.23482349 C17.23666,0.998900175 17.5502152,0.869077656 17.8836102,0.869077656 C18.2174365,0.869077656 18.5288352,1.00062539 18.7647563,1.23482349 L18.7647563,1.23482349 Z M19.3797903,0.619783917 C18.9670361,0.207025943 18.4261857,0 17.8836102,0 C17.3410347,0 16.8001843,0.207025943 16.3874301,0.619783917 C16.3874301,0.619783917 16.3572391,0.648681288 16.3184221,0.688792564 C16.3149717,0.692242997 16.3102274,0.693968213 16.306777,0.697418645 L1.00079876,16.0018115 C0.948611451,16.0557245 0.908069241,16.1230079 0.887798136,16.1971922 L0.0148467169,19.4522439 C-0.0252641932,19.6023377 0.0170032174,19.7623515 0.128278645,19.8719027 C0.210656966,19.956007 0.321501094,20 0.434501722,20 C0.471593531,20 0.510410541,19.9948244 0.547502351,19.9849044 L3.80252427,19.111945 C3.87800179,19.0916737 3.9439907,19.0528563 3.99790322,18.9976494 L19.3021563,3.69627569 C19.3073319,3.69110004 19.3090571,3.68463048 19.3125075,3.67945483 C19.3508932,3.63891225 19.3780651,3.6121714 19.3780651,3.6121714 C20.2070239,2.78493024 20.2070239,1.44529986 19.3797903,0.619783917 L19.3797903,0.619783917 Z" id="Fill-1" fill="#158BCA" mask="url(#mask-2)"></path>
                        </g>
                    </g>
                </g>
            </g>
        </g>
    </g>
</svg>