<?xml version="1.0" encoding="UTF-8"?>
<svg width="13px" height="27px" viewBox="0 0 13 27" version="1.1" xmlns="http://www.w3.org/2000/svg" xmlns:xlink="http://www.w3.org/1999/xlink">
    <!-- Generator: Sketch 53 (72520) - https://sketchapp.com -->
    <title>attachment</title>
    <desc>Created with Sketch.</desc>
    <g id="Page-1" stroke="none" stroke-width="1" fill="none" fill-rule="evenodd">
        <g id="Add-New-Product-Pop-up-1" transform="translate(-1156.000000, -1164.000000)" fill="#575756" fill-rule="nonzero" stroke="#575756" stroke-width="0.5">
            <g id="pop-up-1" transform="translate(651.000000, 1029.000000)">
                <g id="Group-17" transform="translate(477.000000, 129.000000)">
                    <g id="attachment" transform="translate(34.000000, 20.000000) rotate(-45.000000) translate(-34.000000, -20.000000) translate(24.000000, 9.000000)">
                        <path d="M1.68752399,20.2987462 C3.93704423,22.5665472 7.57856412,22.567794 9.82991812,20.2982303 L15.5248731,14.5435815 L14.6191629,13.6326606 L8.92476225,19.3867504 C7.17888823,21.1468124 4.33808478,21.1468124 2.59216811,19.3867504 C0.846294087,17.6266885 0.846294087,14.7627992 2.59246663,13.0024364 L13.2626871,2.23204754 C14.5097765,0.974823611 16.5389036,0.974866604 17.7859504,2.23204754 C19.0329971,3.48922847 19.0329971,5.53484526 17.7856518,6.79237013 L7.21219455,17.4651665 C6.49860335,18.1845567 5.39778882,18.3185207 4.65161628,17.7768177 C3.64338565,17.0447877 3.58896968,15.6458182 4.40179752,14.8264279 L13.715329,5.42371016 L12.8100026,4.51235931 L3.49685488,13.9146901 C2.10199796,15.3208393 2.28665402,17.6491305 3.90395113,18.8233793 C5.15556101,19.7321076 6.96659772,19.5367936 8.11713719,18.3768612 L18.6905945,7.70402193 C20.4364685,5.94396002 20.4364685,3.08011372 18.6905945,1.32000882 C16.9446778,-0.440053093 14.103917,-0.440053093 12.3577445,1.32030976 L1.68752399,12.0906986 C-0.562337411,14.3588866 -0.562678577,18.0302573 1.68752399,20.2987462 Z" id="Path"></path>
                    </g>
                </g>
            </g>
        </g>
    </g>
</svg>