<?xml version="1.0" encoding="UTF-8"?>
<svg width="35px" height="32px" viewBox="0 0 35 32" version="1.1" xmlns="http://www.w3.org/2000/svg" xmlns:xlink="http://www.w3.org/1999/xlink">
    <!-- Generator: Sketch 53 (72520) - https://sketchapp.com -->
    <title>Icons / Tick</title>
    <desc>Created with Sketch.</desc>
    <g id="Page-1" stroke="none" stroke-width="1" fill="none" fill-rule="evenodd">
        <g id="Add-New-Product" transform="translate(-1090.000000, -928.000000)">
            <g id="Group-19" transform="translate(1062.000000, 921.000000)">
                <g id="Group-14" transform="translate(28.000000, 7.000000)">
                    <g id="Icons-/-Tick" transform="translate(0.000000, -0.000000)">
                        <path d="M34.0272498,15.9454606 C32.9884532,14.9707491 32.7567539,13.4862821 33.4557016,12.2808527 C33.9548001,11.4213402 33.9890999,10.3957492 33.5502013,9.5090369 C33.1109527,8.62200467 32.2475056,7.97497031 31.2160589,7.7592922 C29.7695135,7.45721484 28.704467,6.32378474 28.5858174,4.96123664 C28.5014676,3.98940514 27.9288694,3.10909283 27.0391723,2.58205744 C26.1491252,2.05502204 25.0438288,1.94078304 24.049832,2.27358014 C22.6554364,2.74013606 21.0951415,2.31741976 20.1963444,1.23038925 C19.5547965,0.455356025 18.5572997,5.91865966e-16 17.4999531,5.91865966e-16 C16.4422564,5.91865966e-16 15.4451097,0.455356025 14.8035618,1.23070925 C13.9047646,2.31741976 12.3437697,2.74013606 10.9504242,2.27358014 C9.95607736,1.94078304 8.85008093,2.05502204 7.96073378,2.58205744 C7.07068665,3.10909283 6.49843849,3.98908515 6.41373877,4.96123664 C6.29508916,6.32378474 5.22969258,7.45689484 3.78384725,7.7592922 C2.75205056,7.97497031 1.88860335,8.62200467 1.44935476,9.50935691 C1.00975619,10.3960692 1.04475607,11.4213402 1.54385446,12.2811727 C2.24315221,13.4866021 2.01110295,14.9707491 0.971956295,15.9457807 C0.230658696,16.6414545 -0.116190194,17.615846 0.0346593277,18.5812776 C0.185158846,19.5463892 0.815506804,20.3911819 1.73950383,20.8663776 C3.03449966,21.5319719 3.71034748,22.8958 3.40794845,24.2337082 C3.19234915,25.18794 3.47234825,26.1805712 4.16499602,26.9181649 C4.85764379,27.6551184 5.88384049,28.0519149 6.93978709,27.9907954 C8.41993231,27.9050361 9.7880779,28.715909 10.3179762,29.9926979 C10.696675,30.9034099 11.5142723,31.5984439 12.5292691,31.8733215 C13.5439158,32.1481991 14.6401122,31.9702806 15.4923596,31.3926857 C16.6872557,30.5834127 18.3140504,30.5834127 19.5082466,31.3926857 C20.3611938,31.9702806 21.4563402,32.1481991 22.4716871,31.8733215 C23.4863338,31.5984439 24.3042811,30.9034099 24.6826299,29.9926979 C25.2128782,28.715909 26.5813737,27.9053561 28.061169,27.9907954 C29.1167657,28.0519149 30.1426123,27.6551184 30.83526,26.9181649 C31.5282578,26.1805712 31.807907,25.18826 31.5926577,24.2337082 C31.2902585,22.89548 31.9654065,21.5319719 33.2607523,20.8663776 C34.1850993,20.3915019 34.8157973,19.5463892 34.9655967,18.5812776 C35.1157463,17.615526 34.7692474,16.6411345 34.0272498,15.9454606 Z" id="Shape" fill="#00B9BF" fill-rule="evenodd"></path>
                        <polyline id="Path-2" stroke="#FFFFFF" stroke-width="2" stroke-linecap="round" stroke-linejoin="round" points="10.2083333 15.6443217 14.9220043 21.3333333 23.3333333 10.6666667"></polyline>
                    </g>
                </g>
            </g>
        </g>
    </g>
</svg>