<svg 
    xmlns="http://www.w3.org/2000/svg"
    viewBox="0 0 32 32"
>
<defs>
    <style>.cls-1{fill:#158bca;}</style>
</defs>
<title>collapse</title>
    <g id="Layer_2" data-name="Layer 2">
        <g id="Layer_1-2" data-name="Layer 1">
            <g id="full-size">
                <path id="Path" class="cls-1" d="M10.26,1.65A1.12,1.12,0,0,0,9.14,2.77V7.55L1.91.33A1.09,1.09,0,0,0,1.12,0,1.11,1.11,0,0,0,.33.33a1.11,1.11,0,0,0,0,1.58L7.55,9.14H2.77a1.12,1.12,0,1,0,0,2.24h7.49a1.12,1.12,0,0,0,1.12-1.12V2.77A1.12,1.12,0,0,0,10.26,1.65Z"/><path class="cls-1" d="M21.72,30.17a1.1,1.1,0,0,0,1.1-1.1V24.38l7.3,7.3a1.1,1.1,0,0,0,1.56-1.56l-7.3-7.3h4.69a1.1,1.1,0,1,0,0-2.2H21.72a1.1,1.1,0,0,0-1.1,1.1v7.35A1.1,1.1,0,0,0,21.72,30.17Z"/><path class="cls-1" d="M1.88,31.68l7.3-7.3v4.69a1.1,1.1,0,0,0,2.2,0V21.72a1.1,1.1,0,0,0-1.1-1.1H2.93a1.1,1.1,0,1,0,0,2.2H7.62l-7.3,7.3a1.1,1.1,0,0,0,1.56,1.56Z"/><path class="cls-1" d="M21.74,11.38h7.49a1.12,1.12,0,1,0,0-2.24H24.45l7.22-7.23a1.11,1.11,0,0,0,0-1.58A1.11,1.11,0,0,0,30.88,0a1.09,1.09,0,0,0-.79.33L22.86,7.55V2.77a1.12,1.12,0,1,0-2.24,0v7.49A1.12,1.12,0,0,0,21.74,11.38Z"/>
            </g>
        </g>
    </g>
</svg>