<?xml version="1.0" encoding="UTF-8"?>
<svg width="58px" height="58px" viewBox="0 0 58 58" version="1.1" xmlns="http://www.w3.org/2000/svg" xmlns:xlink="http://www.w3.org/1999/xlink">
    <!-- Generator: Sketch 54.1 (76490) - https://sketchapp.com -->
    <title>Group 9</title>
    <desc>Created with Sketch.</desc>
    <g id="Page-1" stroke="none" stroke-width="1" fill="none" fill-rule="evenodd">
        <g id="Add-New-Product-Contents-New-Trail-File" transform="translate(-853.000000, -1018.000000)">
            <g id="Group-16" transform="translate(621.000000, 1018.000000)">
                <g id="Group-9" transform="translate(232.000000, 0.000000)">
                    <circle id="Oval-Copy" fill="#15CAAF" cx="29" cy="29" r="29"></circle>
                    <g id="packaging" transform="translate(10.000000, 10.000000)">
                        <circle id="Oval-Copy" stroke-opacity="0.2" stroke="#000000" stroke-width="2" cx="19" cy="19" r="19"></circle>
                        <g id="Group-13" transform="translate(8.000000, 11.000000)" fill="#000000" fill-opacity="0.2" fill-rule="nonzero">
                            <g id="packaging">
                                <path d="M11.5183923,4.92624461 L11.5183923,14.3870112 L19.100424,12.9576098 L19.100424,8.34802207 C19.100424,8.15504932 19.2696034,8.00518032 19.4625737,8.02716361 L20.3953639,8.17054266 C20.5594831,8.18926222 20.6833843,8.32727675 20.6833843,8.49140112 L20.6833843,13.8464699 C20.6833843,13.9987023 20.576401,14.1302269 20.4265941,14.1622264 L12.1267207,15.9350698 C11.7256371,16.0207146 11.3108832,16.0216524 10.909422,15.9377708 L2.69863207,14.2220615 C2.55127983,14.1912999 2.44448534,14.0639769 2.44055796,13.914408 L2.29871915,8.47583275 C2.29426309,8.30525595 2.4241687,8.16071396 2.59523627,8.14578333 L9.56980815,7.53696632 C9.69076387,7.52642484 9.79570797,7.44974593 9.84196796,7.3382539 L10.8926929,4.80331077 C11.028263,4.47618745 11.5183923,4.57252377 11.5183923,4.92624461 Z M2.21983171,1.82870189 L0.0311487236,6.47617892 C-0.0757968267,6.70328953 0.107203928,6.95954864 0.358291839,6.93433913 L8.57788062,6.1092906 C8.69404041,6.09762371 8.7949816,6.02499633 8.84233673,5.91898136 L11.4870866,0 L2.45558773,1.64792124 C2.35222969,1.66679085 2.26439235,1.73412874 2.21983171,1.82870189 Z M11.4871244,1.42108547e-14 L14.2856084,6.10400111 C14.3345119,6.21069133 14.4377566,6.28264346 14.5554269,6.29205951 L22.759495,6.94746908 C23.0067311,6.96720152 23.1842562,6.71570671 23.0813135,6.4915222 L20.9417228,1.83181557 C20.8974642,1.73544173 20.808494,1.66679085 20.7035121,1.64799627 L11.4871244,1.42108547e-14 Z" id="Shape"></path>
                            </g>
                        </g>
                    </g>
                </g>
            </g>
        </g>
    </g>
</svg>