<?xml version="1.0" encoding="UTF-8"?>
<svg width="58px" height="58px" viewBox="0 0 58 58" version="1.1" xmlns="http://www.w3.org/2000/svg" xmlns:xlink="http://www.w3.org/1999/xlink">
    <!-- Generator: Sketch 54.1 (76490) - https://sketchapp.com -->
    <title>Group 8</title>
    <desc>Created with Sketch.</desc>
    <g id="Page-1" stroke="none" stroke-width="1" fill="none" fill-rule="evenodd">
        <g id="Add-New-Product-Contents-New-Trail-File-View-mode" transform="translate(-833.000000, -459.000000)">
            <g id="Group-17" transform="translate(621.000000, 459.000000)">
                <g id="Group-8" transform="translate(212.000000, 0.000000)">
                    <circle id="Oval" fill="#15CAAF" cx="29" cy="29" r="29"></circle>
                    <circle id="Oval" stroke-opacity="0.2" stroke="#000000" stroke-width="2" cx="29" cy="29" r="19"></circle>
                    <path d="M23.0834972,32.5948382 C22.1898109,34.1400018 21.7272793,35.4518521 21.7272793,36.0740429 C21.7272793,36.2697426 21.5643687,36.4285714 21.3636396,36.4285714 C21.1629106,36.4285714 21,36.2697426 21,36.0740429 C21,33.9660163 24.7491247,27.2023209 30.6597233,24.4100542 C30.8400886,24.3256765 31.0582724,24.3987093 31.1455459,24.5745555 C31.1470854,24.5776574 31.1485742,24.5807708 31.1500127,24.5838948 C31.4730623,24.392828 31.6002071,23.9888557 31.4322771,23.6498571 C31.2542222,23.2904196 30.8124098,23.1421607 30.4452179,23.3142857 C26.6203636,25.1288304 23.7227244,28.4556161 22.0493045,31.2855536 C21.6813737,30.5927143 21.4848485,29.8044107 21.4848485,28.9553571 C21.4848485,25.2792589 24.7171717,21 37,21 C35.3842078,22.5823929 33.9834113,24.4952946 33.3059163,27.5089286 C32.7370274,30.0401786 31.766961,34.0178571 27.3953824,34.0178571 C25.5573943,34.0178571 24.0941408,33.4812508 23.0834972,32.5948382 Z" id="Combined-Shape" fill-opacity="0.2" fill="#000000"></path>
                </g>
            </g>
        </g>
    </g>
</svg>