<?xml version="1.0" encoding="UTF-8"?>
<svg width="58px" height="58px" viewBox="0 0 58 58" version="1.1" xmlns="http://www.w3.org/2000/svg" xmlns:xlink="http://www.w3.org/1999/xlink">
    <!-- Generator: Sketch 54.1 (76490) - https://sketchapp.com -->
    <title>manufacturer</title>
    <desc>Created with Sketch.</desc>
    <g id="Page-1" stroke="none" stroke-width="1" fill="none" fill-rule="evenodd">
        <g id="Add-New-Product-Contents-New-Trail-File-View-mode" transform="translate(-834.000000, -1219.000000)">
            <g id="manufacturer" transform="translate(834.000000, 1219.000000)">
                <circle id="Oval-Copy-2" fill="#15CAAF" cx="29" cy="29" r="29"></circle>
                <g id="Group-3" transform="translate(20.000000, 20.000000)" fill="#000000" fill-opacity="0.2">
                    <path d="M17.28,6.0504697 C17.28,6.29508197 17.1829534,6.51611715 17.0288206,6.67526248 C16.8746878,6.83440781 16.6606145,6.93461043 16.4237066,6.93461043 L12.5018831,6.93461043 C12.2135976,6.93461043 11.9567096,6.78725364 11.8025768,6.56032418 L10.0700099,4.77141278 L9.66755203,4.35586664 L9.66755203,4.42954504 L5.30331021,4.42954504 C5.14632309,4.87456253 4.88658077,5.26653159 4.55262636,5.57303371 L6.87032706,10.6126358 L14.3058077,10.6126358 C15.0935976,10.6126358 15.7329633,11.2727943 15.7329633,12.0862037 L15.7329633,14.5264321 C15.7329633,15.3398416 15.0935976,16 14.3058077,16 L2.45185332,16 C1.66406343,16 1.02469772,15.3398416 1.02469772,14.5264321 L1.02469772,12.0862037 C1.02469772,11.2727943 1.66406343,10.6126358 2.45185332,10.6126358 L4.38136769,10.6126358 L2.38049554,6.26855775 C1.03896928,6.08878246 0,4.90403389 0,3.46877878 C0,1.9126911 1.2244995,0.648369866 2.73443013,0.648369866 C3.94465808,0.648369866 4.9693558,1.46177933 5.32899901,2.58758519 L9.66469772,2.58758519 L10.0700099,2.16614478 L11.7911596,0.391969055 C11.7940139,0.386074784 11.7968682,0.383127648 11.7997225,0.380180512 C11.8279802,0.335973476 11.8625173,0.297660711 11.8967691,0.259347946 C12.0509019,0.100202616 12.2675441,0 12.5018831,0 L16.4237066,0 C16.8975223,0 17.28,0.397863327 17.28,0.884140726 C17.28,1.12875299 17.1829534,1.34978817 17.0288206,1.50893351 C16.8746878,1.67102597 16.6606145,1.76828145 16.4237066,1.76828145 L12.978553,1.76828145 L11.3316155,3.46877878 L12.9728444,5.16632897 L16.4237066,5.16632897 C16.8975223,5.16632897 17.28,5.56124516 17.28,6.0504697" id="Fill-1"></path>
                </g>
                <circle id="Oval-Copy-2" stroke-opacity="0.2" stroke="#000000" stroke-width="2" cx="29" cy="29" r="19"></circle>
            </g>
        </g>
    </g>
</svg>