<?xml version="1.0" encoding="UTF-8"?>
<svg width="50px" height="50px" viewBox="0 0 50 50" version="1.1" xmlns="http://www.w3.org/2000/svg" xmlns:xlink="http://www.w3.org/1999/xlink">
    <!-- Generator: Sketch 53 (72520) - https://sketchapp.com -->
    <title>facebook</title>
    <desc>Created with Sketch.</desc>
    <g id="Page-1" stroke="none" stroke-width="1" fill="none" fill-rule="evenodd">
        <g id="Onboarding-Add-New-Brand-Filled" transform="translate(-985.000000, -1065.000000)" fill="#15CAAF" fill-rule="nonzero">
            <g id="SM" transform="translate(985.000000, 1065.000000)">
                <g id="facebook">
                    <path d="M25.2717391,-4.58418996e-16 C15.2669043,-0.00219814022 6.24608972,6.02316756 2.41638969,15.2660093 C-1.41331033,24.508851 0.702454272,35.1485722 7.77694103,42.223059 C14.8514278,49.2975457 25.491149,51.4133103 34.7339907,47.5836103 C43.9768324,43.7539103 50.0021981,34.7330957 50,24.7282609 C50,18.1699183 47.3947086,11.8801884 42.7572601,7.24273992 C38.1198116,2.60529143 31.8300817,-5.68362284e-17 25.2717391,-4.58418996e-16 Z M31.7608696,16.3858696 L29.4076087,16.3858696 C27.5652174,16.3858696 27.2336957,17.2608696 27.2336957,18.5597826 L27.2336957,21.3967391 L31.6304348,21.3967391 L31.6304348,25.8369565 L27.2065217,25.8369565 L27.2065217,37.25 L22.6195652,37.25 L22.6195652,25.8369565 L18.8152174,25.8369565 L18.8152174,21.3858696 L22.6195652,21.3858696 L22.6195652,18.125 C22.6195652,14.3206522 24.9402174,12.2554348 28.3315217,12.2554348 L31.7608696,12.2554348 L31.7608696,16.3858696 Z" id="Shape"></path>
                </g>
            </g>
        </g>
    </g>
</svg>