<?xml version="1.0" encoding="UTF-8"?>
<svg width="50px" height="50px" viewBox="0 0 50 50" version="1.1" xmlns="http://www.w3.org/2000/svg" xmlns:xlink="http://www.w3.org/1999/xlink">
    <!-- Generator: Sketch 53 (72520) - https://sketchapp.com -->
    <title>linkedin</title>
    <desc>Created with Sketch.</desc>
    <g id="Page-1" stroke="none" stroke-width="1" fill="none" fill-rule="evenodd">
        <g id="Onboarding-Add-New-Brand-Filled" transform="translate(-1156.000000, -1065.000000)" fill="#15CAAF" fill-rule="nonzero">
            <g id="SM" transform="translate(985.000000, 1065.000000)">
                <g id="linkedin" transform="translate(170.000000, 0.000000)">
                    <path d="M25.9900231,-1.99470669e-06 C15.877616,-0.00444603257 6.75847052,6.08370113 2.88554012,15.425072 C-0.987390273,24.7664428 1.14875972,35.5210331 8.29774038,42.6731569 C15.446721,49.8252806 26.2003713,51.9661577 35.5434437,48.0973338 C44.886516,44.2285098 50.978671,35.1120414 50.9786719,24.9996332 C50.9786733,11.1970053 39.7926498,0.00606376137 25.9900231,-1.99470669e-06 Z M20.1781985,35.8926846 L15.0969718,35.8926846 L15.0969718,21.3686161 L20.1781985,21.3686161 L20.1781985,35.8926846 Z M17.6348385,19.1878086 C16.2301796,19.1878086 15.0914786,18.0491075 15.0914786,16.6444486 C15.0914786,15.2397897 16.2301796,14.1010887 17.6348385,14.1010887 C19.0394974,14.1010887 20.1781985,15.2397897 20.1781985,16.6444486 C20.1796611,17.3194369 19.9121704,17.9672006 19.4348805,18.4444906 C18.9575905,18.9217805 18.3098268,19.1892712 17.6348385,19.1878086 L17.6348385,19.1878086 Z M36.8611016,35.8926846 L32.5214594,35.8926846 L32.5214594,28.8174198 C32.5214594,27.1255086 32.33469,24.9721671 30.0220452,24.9721671 C27.7094004,24.9721671 27.3138887,26.8123952 27.3138887,28.7130486 L27.3138887,35.9091642 L23.0786176,35.9091642 L23.0786176,21.3686161 L27.1326125,21.3686161 L27.1326125,23.329695 L27.1930379,23.329695 C27.7972919,22.1816124 29.2694743,21.3686161 31.4667615,21.3686161 C35.1691905,21.3686161 36.4106577,23.0934866 36.7677169,25.8291092 C36.8499906,26.5199625 36.8885199,27.215325 36.8830745,27.9110388 L36.8611016,35.8926846 Z" id="Shape"></path>
                </g>
            </g>
        </g>
    </g>
</svg>