<?xml version="1.0" encoding="UTF-8"?>
<svg width="50px" height="51px" viewBox="0 0 50 51" version="1.1" xmlns="http://www.w3.org/2000/svg" xmlns:xlink="http://www.w3.org/1999/xlink">
    <!-- Generator: Sketch 53 (72520) - https://sketchapp.com -->
    <title>Group 6</title>
    <desc>Created with Sketch.</desc>
    <g id="Page-1" stroke="none" stroke-width="1" fill="none" fill-rule="evenodd">
        <g id="Onboarding-Add-New-Brand-Filled" transform="translate(-1409.000000, -1065.000000)">
            <g id="SM-OFF" transform="translate(985.000000, 1065.000000)">
                <g id="Group-6" transform="translate(424.000000, 0.000000)">
                    <path d="M24.9047917,50.5045833 L24.9047917,50.5045833 C11.1499306,50.5045833 -6.94444444e-05,39.3538889 -6.94444444e-05,25.5997222 C-6.94444444e-05,11.8448611 11.1499306,0.694166667 24.9047917,0.694166667 C38.6603472,0.694166667 49.8103472,11.8448611 49.8103472,25.5997222 C49.8103472,39.3538889 38.6603472,50.5045833 24.9047917,50.5045833" id="Fill-1" fill="#A7A9AC"></path>
                    <path d="M37.9052778,18.5470119 L36.876936,18.5470119 C36.4952947,18.5470119 35.9552778,19.0818627 35.9552778,19.4248939 L35.9552778,31.8413401 C35.9552778,32.1843713 36.4952947,32.6518982 36.876936,32.6518982 L37.9052778,32.6518982 L37.9052778,35.5997222 L28.5886111,35.5997222 L28.5886111,32.6518982 L30.5386111,32.6518982 L30.5386111,19.5996154 L30.4434757,19.5996154 L25.8890764,35.5997222 L22.3635688,35.5997222 L17.8685603,19.5996154 L17.7547279,19.5996154 L17.7547279,32.6518982 L19.7047279,32.6518982 L19.7047279,35.5997222 L11.9052778,35.5997222 L11.9052778,32.6518982 L12.9039241,32.6518982 C13.3147109,32.6518982 13.8552778,32.1843713 13.8552778,31.8413401 L13.8552778,19.4248939 C13.8552778,19.0818627 13.3147109,18.5470119 12.9039241,18.5470119 L11.9052778,18.5470119 L11.9052778,15.5997222 L21.6585773,15.5997222 L24.8607346,27.1783602 L24.949271,27.1783602 L28.1805739,15.5997222 L37.9052778,15.5997222 L37.9052778,18.5470119" id="Fill-4" fill="#FFFFFF"></path>
                </g>
            </g>
        </g>
    </g>
</svg>