<?xml version="1.0" encoding="UTF-8"?>
<svg width="50px" height="51px" viewBox="0 0 50 51" version="1.1" xmlns="http://www.w3.org/2000/svg" xmlns:xlink="http://www.w3.org/1999/xlink">
    <!-- Generator: Sketch 53 (72520) - https://sketchapp.com -->
    <title>snapchat</title>
    <desc>Created with Sketch.</desc>
    <defs>
        <polygon id="path-1" points="0.000486111111 0.189583333 49.8102083 0.189583333 49.8102083 49.9999306 0.000486111111 49.9999306"></polygon>
    </defs>
    <g id="Page-1" stroke="none" stroke-width="1" fill="none" fill-rule="evenodd">
        <g id="Onboarding-Add-New-Brand-Filled" transform="translate(-1325.000000, -1065.000000)">
            <g id="SM" transform="translate(985.000000, 1065.000000)">
                <g id="snapchat" transform="translate(340.000000, 0.000000)">
                    <g id="Group-3" transform="translate(0.000000, 0.504653)">
                        <mask id="mask-2" fill="white">
                            <use xlink:href="#path-1"></use>
                        </mask>
                        <g id="Clip-2"></g>
                        <path d="M24.9053472,49.9999306 L24.9053472,49.9999306 C11.1497917,49.9999306 0.000486111111,38.8492361 0.000486111111,25.0950694 C0.000486111111,11.3402083 11.1497917,0.189513889 24.9053472,0.189513889 C38.6602083,0.189513889 49.8102083,11.3402083 49.8102083,25.0950694 C49.8102083,38.8492361 38.6602083,49.9999306 24.9053472,49.9999306" id="Fill-1" fill="#15CAAF" mask="url(#mask-2)"></path>
                    </g>
                    <path d="M37.645862,31.9071298 L37.645862,31.9016723 C37.6397315,31.895002 37.6336011,31.895002 37.6219531,31.8834806 L37.6158227,31.8834806 C37.3050071,31.6888296 36.9886742,31.6591165 36.7906595,31.5875626 C36.7857552,31.5875626 36.7796247,31.5875626 36.7796247,31.5821051 C35.4290791,31.1618773 34.2636742,30.2522933 33.3925324,29.141388 C32.9076112,28.5210517 32.5017732,27.8528107 32.233258,27.1378776 L32.233258,27.1263562 C32.1253615,26.8189168 32.119231,26.4763069 32.2743322,26.2695281 C32.2743322,26.2695281 32.2804627,26.2695281 32.2804627,26.2634642 C32.525069,25.9208542 32.9738204,25.7019477 33.4452546,25.5309459 L33.4513851,25.5309459 C33.9835111,25.3478163 34.5567113,25.1404312 35.0287585,24.7268736 C35.034889,24.7268736 35.034889,24.7208097 35.0410195,24.7208097 C35.1127462,24.6559261 35.2022512,24.5673932 35.2678474,24.431562 C35.2801084,24.4018489 35.2978868,24.3666784 35.3034042,24.3254439 C35.3395741,24.2011341 35.3395741,24.0477176 35.2739779,23.9173439 L35.2739779,23.91128 C35.136655,23.6396175 34.9030836,23.4922649 34.7240735,23.3916043 L34.7185561,23.3916043 C34.4255189,23.2199961 34.0791466,23.2084747 33.7744616,23.308529 L33.7683311,23.308529 C33.4452546,23.4037321 33.1767394,23.5213716 32.9321331,23.5510847 C32.9260026,23.5510847 32.9198721,23.5510847 32.9137417,23.5571486 C32.5673693,23.6159684 32.2271275,23.6280961 31.9635167,23.5334994 C31.9586123,23.4977224 31.9586123,23.420711 31.9463513,23.3267206 L31.9518688,23.3267206 C31.9285729,22.7591402 31.9819081,22.1745809 31.9880386,21.565766 L31.9880386,21.5597021 C32.018078,20.6379903 32.0536348,19.692023 31.9156989,18.7345342 L31.9156989,18.7230128 C31.6116269,17.1100172 30.5657664,15.7213856 29.2397428,14.7990674 C28.2784829,14.1253688 27.1308564,13.7536522 25.9654514,13.6469277 C25.5657439,13.6117571 25.1770712,13.5996293 24.7883986,13.5996293 C23.2177687,13.6117571 21.58706,14.0192507 20.3143716,15.0058462 C19.3580161,15.7450348 18.6051927,16.7255663 18.1331455,17.8188863 L18.1331455,17.8249502 C17.6794897,18.9473769 17.721177,20.1474213 17.7812557,21.2577202 C17.8161995,22.0387497 17.9063176,22.7949172 17.835204,23.5153077 C17.8290735,23.5395633 17.8290735,23.5510847 17.822943,23.5632125 C17.4704402,23.6280961 17.0817675,23.604447 16.6992254,23.5334994 L16.6930949,23.5334994 C16.4307102,23.4922649 16.149934,23.3855404 15.8336011,23.2970076 C15.8274706,23.2970076 15.8213401,23.2970076 15.8158227,23.2909437 C15.5111376,23.22606 15.2058395,23.308529 14.9783986,23.4801371 C14.9728811,23.4801371 14.9667507,23.4801371 14.9667507,23.486201 C14.9606202,23.4922649 14.9551027,23.4922649 14.9551027,23.4977224 C14.7638316,23.6159684 14.5069644,23.8227471 14.4947034,24.1774849 C14.489186,24.2011341 14.4947034,24.2187194 14.4947034,24.2423685 C14.5008339,24.2423685 14.4947034,24.2484324 14.5008339,24.2484324 C14.5370038,24.4552112 14.6681961,24.6086277 14.7877405,24.7092883 C14.9066719,24.8093426 15.0145684,24.8748326 15.0801646,24.9281949 C15.0862951,24.9281949 15.0924256,24.9336524 15.0985561,24.9397163 C15.6717563,25.3181032 16.3050352,25.4836475 16.8610701,25.6958838 C17.2429993,25.8614281 17.5715932,26.1155052 17.6494503,26.4405299 C17.7450859,26.8486299 17.5660757,27.3216136 17.3386348,27.7764056 L17.3386348,27.7824695 C16.7176168,28.9879715 15.7968182,30.040057 14.6626787,30.8138098 C14.0649565,31.2158459 13.3955077,31.516615 12.6966325,31.700351 C12.6905021,31.700351 12.6782411,31.7064149 12.6665932,31.7118724 C12.5237529,31.7652347 12.182898,31.7943414 11.967718,32.1139085 C11.9560701,32.1375577 11.9438092,32.1612069 11.9321612,32.19092 C11.8598215,32.3916349 11.9438092,32.6105414 12.0455752,32.7342448 C12.1405977,32.8470332 12.2484942,32.9179808 12.3441297,32.9646728 C12.3496472,32.9646728 12.3557777,32.9707367 12.3625212,32.9707367 C12.9473693,33.3078891 13.5929093,33.4491779 14.1783705,33.5971369 C14.1838879,33.5971369 14.1838879,33.6025944 14.1838879,33.6025944 C14.6087304,33.6917336 15.0023075,33.7450959 15.3192535,33.8809271 C15.3315144,33.9045762 15.3670712,34.0106944 15.4387979,34.1883665 C15.5460814,34.5073272 15.5938991,34.8790439 15.7140566,35.2756225 C15.7496134,35.3817407 15.845249,35.4702735 15.9586629,35.4945291 C16.2271781,35.5533489 16.3706314,35.4642096 16.3951534,35.4587521 L16.4307102,35.4587521 C17.4103615,35.2871439 18.3967563,35.1397913 19.2979374,35.3580915 C20.2420319,35.6061047 21.0665819,36.2506966 21.992898,36.8000853 L21.992898,36.8061492 C22.6083986,37.1845362 23.3189216,37.5562528 24.1440847,37.5859659 L24.1496022,37.5859659 C24.7712332,37.6217429 25.3738598,37.579902 25.9715819,37.5447314 L25.9838429,37.5447314 C26.4914469,37.4974331 26.9812726,37.3258249 27.41715,37.0602264 C27.4232805,37.0541625 27.429411,37.048705 27.4355414,37.048705 C28.4096753,36.4987098 29.2697822,35.843203 30.2200071,35.429039 L30.2255246,35.429039 C30.5302096,35.3229209 30.9182692,35.3283784 31.3431117,35.2992717 L31.3547597,35.2992717 C32.1431399,35.2756225 32.9260026,35.316857 33.7082523,35.4175176 C33.7321612,35.4235815 33.7622006,35.4235815 33.7861095,35.4175176 C33.894006,35.4053899 34.0012895,35.3344423 34.0552377,35.2695586 C34.1147034,35.204675 34.1269644,35.1452488 34.1386123,35.1040144 C34.1625212,35.0276093 34.1809126,34.9918323 34.1447428,35.056716 C34.1570038,35.0330668 34.1686517,35.0154815 34.1747822,34.9918323 C34.3176224,34.5249125 34.3954796,34.1052911 34.6284379,33.8457565 C34.730204,33.7450959 34.9098272,33.6977975 35.1127462,33.6977975 L35.1544335,33.6977975 C35.8355302,33.620786 36.4449003,33.3782303 37.024231,33.1775154 C37.0303615,33.1714515 37.0426224,33.1714515 37.0481399,33.1714515 C37.2633198,33.0774612 37.5857833,32.9707367 37.8070937,32.6693612 L37.8070937,32.6639037 C37.9916213,32.4092201 37.9027293,32.0605463 37.645862,31.9071298" id="Fill-4" fill="#FFFFFF"></path>
                </g>
            </g>
        </g>
    </g>
</svg>