<?xml version="1.0" encoding="UTF-8"?>
<svg width="50px" height="50px" viewBox="0 0 50 50" version="1.1" xmlns="http://www.w3.org/2000/svg" xmlns:xlink="http://www.w3.org/1999/xlink">
    <!-- Generator: Sketch 53 (72520) - https://sketchapp.com -->
    <title>twitter</title>
    <desc>Created with Sketch.</desc>
    <g id="Page-1" stroke="none" stroke-width="1" fill="none" fill-rule="evenodd">
        <g id="Onboarding-Add-New-Brand-Filled" transform="translate(-1070.000000, -1065.000000)" fill="#15CAAF" fill-rule="nonzero">
            <g id="SM" transform="translate(985.000000, 1065.000000)">
                <g id="twitter" transform="translate(84.000000, 0.000000)">
                    <path d="M25.9900231,-1.99470669e-06 C15.877616,-0.00444603257 6.75847052,6.08370113 2.88554012,15.425072 C-0.987390273,24.7664428 1.14875972,35.5210331 8.29774038,42.6731569 C15.446721,49.8252806 26.2003713,51.9661577 35.5434437,48.0973338 C44.886516,44.2285098 50.978671,35.1120414 50.9786719,24.9996332 C50.975643,11.1982603 39.7913934,0.00909348134 25.9900231,-1.99470669e-06 Z M35.7789377,20.055737 C35.7789377,20.2718036 35.7789377,20.4860391 35.7789377,20.6984435 C35.7760126,21.7095031 35.6617983,22.7171686 35.4383581,23.7032338 C34.174918,29.377728 29.3189133,34.8489732 21.4196657,34.8489732 C18.6798819,34.8527113 15.9955157,34.0773124 13.6797215,32.6132334 C14.0788422,32.6621312 14.4806337,32.6859819 14.8827363,32.6846453 C17.1524463,32.6902929 19.3594947,31.9404376 21.1559913,30.5532767 C19.0087393,30.5210651 17.116337,29.1353595 16.437317,27.0980425 C16.7503672,27.1595587 17.0686072,27.1908309 17.3876437,27.1914272 C17.8382411,27.1895686 18.2867789,27.1305019 18.7224957,27.0156443 C17.0433132,26.6859032 15.6454978,25.5279496 15.0090803,23.9394422 C14.7834395,23.3655596 14.6678993,22.7543146 14.6685008,22.1376666 L14.6685008,22.0772412 C15.3726664,22.4612939 16.1574441,22.6739554 16.9591727,22.6979749 C14.7484467,21.2568457 14.0593152,18.3334773 15.3936056,16.0566743 C17.9851416,19.1819556 21.7749284,21.0688705 25.8307198,21.2532585 C25.7465244,20.8819516 25.704146,20.5023887 25.7043758,20.1216556 C25.714535,18.7929578 26.2521214,17.5227202 27.1988637,16.5904005 C28.1456061,15.6580808 29.423946,15.1400558 30.7526432,15.1502933 C32.1450141,15.145053 33.4781314,15.7132669 34.4385925,16.7213537 C35.5700664,16.5019477 36.6564631,16.0933882 37.652125,15.5128457 C37.274842,16.6633797 36.4944918,17.6388175 35.4548378,18.2594547 C36.4551207,18.1422253 37.4325289,17.8775105 38.3552569,17.4739245 C37.659868,18.4834017 36.7869314,19.3581996 35.7789377,20.055737 Z" id="Shape"></path>
                </g>
            </g>
        </g>
    </g>
</svg>