<?xml version="1.0" encoding="UTF-8"?>
<svg width="50px" height="51px" viewBox="0 0 50 51" version="1.1" xmlns="http://www.w3.org/2000/svg" xmlns:xlink="http://www.w3.org/1999/xlink">
    <!-- Generator: Sketch 53 (72520) - https://sketchapp.com -->
    <title>yt</title>
    <desc>Created with Sketch.</desc>
    <defs>
        <polygon id="path-1" points="0.000347222222 0.189583333 49.8100694 0.189583333 49.8100694 49.9999306 0.000347222222 49.9999306"></polygon>
    </defs>
    <g id="Page-1" stroke="none" stroke-width="1" fill="none" fill-rule="evenodd">
        <g id="Onboarding-Add-New-Brand-Filled" transform="translate(-1240.000000, -1065.000000)">
            <g id="SM" transform="translate(985.000000, 1065.000000)">
                <g id="yt" transform="translate(255.000000, 0.000000)">
                    <g id="Group-3" transform="translate(0.000000, 0.504653)">
                        <mask id="mask-2" fill="white">
                            <use xlink:href="#path-1"></use>
                        </mask>
                        <g id="Clip-2"></g>
                        <path d="M24.9052083,49.9999306 L24.9052083,49.9999306 C11.1503472,49.9999306 0.000347222222,38.8492361 0.000347222222,25.0950694 C0.000347222222,11.3402083 11.1503472,0.189513889 24.9052083,0.189513889 C38.6600694,0.189513889 49.8100694,11.3402083 49.8100694,25.0950694 C49.8100694,38.8492361 38.6600694,49.9999306 24.9052083,49.9999306" id="Fill-1" fill="#15CAAF" mask="url(#mask-2)"></path>
                    </g>
                    <path d="M38.3203016,18.7225587 C37.9983728,17.4932046 37.0496584,16.5249522 35.8448643,16.1965969 C33.6611141,15.5997222 24.9051389,15.5997222 24.9051389,15.5997222 C24.9051389,15.5997222 16.1491637,15.5997222 13.9654134,16.1965969 C12.7611071,16.5249522 11.811905,17.4932046 11.4899762,18.7225587 C10.9051389,20.950825 10.9051389,25.5997222 10.9051389,25.5997222 C10.9051389,25.5997222 10.9051389,30.2486195 11.4899762,32.4763912 C11.811905,33.7057454 12.7611071,34.6739978 13.9654134,35.002353 C16.1491637,35.5997222 24.9051389,35.5997222 24.9051389,35.5997222 C24.9051389,35.5997222 33.6611141,35.5997222 35.8448643,35.002353 C37.0496584,34.6739978 37.9983728,33.7057454 38.3203016,32.4763912 C38.9051389,30.2486195 38.9051389,25.5997222 38.9051389,25.5997222 C38.9051389,25.5997222 38.9051389,20.950825 38.3203016,18.7225587" id="Fill-4" fill="#FFFFFF"></path>
                    <polygon id="Fill-6" fill="#15CAAF" points="21.9051389 29.5997222 21.9051389 21.5997222 29.9051389 25.5997222"></polygon>
                </g>
            </g>
        </g>
    </g>
</svg>